<svg width="412" height="917" viewBox="0 0 412 917" fill="none" xmlns="http://www.w3.org/2000/svg">
<rect width="412" height="917" fill="#D9D9D9"/>
<rect y="76" width="412" height="212" fill="white"/>
<rect x="33" y="769" width="346" height="100" rx="30" fill="white"/>
<rect width="37" height="37" transform="translate(54 788)" fill="white"/>
<path d="M61.7083 817.292V803.892C61.7083 803.497 61.7967 803.123 61.9735 802.771C62.1503 802.418 62.3938 802.128 62.7042 801.9L71.0061 795.613C71.4409 795.281 71.9373 795.115 72.4954 795.115C73.0534 795.115 73.5529 795.281 73.9939 795.613L82.2957 801.898C82.6071 802.126 82.8507 802.417 83.0265 802.771C83.2033 803.123 83.2916 803.497 83.2916 803.892V817.292C83.2916 817.705 83.138 818.065 82.8307 818.372C82.5234 818.68 82.1631 818.833 81.75 818.833H76.533C76.1794 818.833 75.8834 818.714 75.645 818.476C75.4065 818.236 75.2873 817.94 75.2873 817.588V810.235C75.2873 809.883 75.1681 809.587 74.9296 809.349C74.6902 809.11 74.3942 808.99 74.0416 808.99H70.9583C70.6058 808.99 70.3103 809.11 70.0719 809.349C69.8324 809.587 69.7126 809.883 69.7126 810.235V817.589C69.7126 817.942 69.5934 818.237 69.355 818.476C69.1165 818.714 68.821 818.833 68.4685 818.833H63.25C62.8368 818.833 62.4766 818.68 62.1693 818.372C61.862 818.065 61.7083 817.705 61.7083 817.292Z" fill="#AAB3B0"/>
<path d="M169.594 817.312L173.938 813L172.625 811.688L169.594 814.656L168.375 813.438L167.062 814.781L169.594 817.312ZM155.5 803.25H170.5V800.75H155.5V803.25ZM170.5 820.75C168.771 820.75 167.297 820.14 166.079 818.921C164.86 817.702 164.251 816.228 164.25 814.5C164.249 812.772 164.859 811.298 166.079 810.079C167.299 808.86 168.772 808.25 170.5 808.25C172.228 808.25 173.702 808.86 174.923 810.079C176.143 811.298 176.753 812.772 176.75 814.5C176.747 816.228 176.138 817.702 174.921 818.923C173.705 820.142 172.231 820.752 170.5 820.75ZM151.75 819.5V798.25C151.75 797.562 151.995 796.974 152.485 796.485C152.975 795.996 153.563 795.751 154.25 795.75H171.75C172.438 795.75 173.026 795.995 173.516 796.485C174.006 796.975 174.251 797.563 174.25 798.25V806.594C173.854 806.406 173.448 806.25 173.031 806.125C172.615 806 172.188 805.906 171.75 805.844V798.25H154.25V815.812H161.844C161.948 816.458 162.11 817.073 162.329 817.656C162.548 818.24 162.834 818.792 163.188 819.312L163 819.5L161.125 817.625L159.25 819.5L157.375 817.625L155.5 819.5L153.625 817.625L151.75 819.5ZM155.5 813.25H161.844C161.906 812.812 162 812.385 162.125 811.969C162.25 811.552 162.406 811.146 162.594 810.75H155.5V813.25ZM155.5 808.25H164.375C165.167 807.479 166.089 806.87 167.141 806.421C168.194 805.973 169.313 805.749 170.5 805.75H155.5V808.25Z" fill="#AAB3B0"/>
<path fill-rule="evenodd" clip-rule="evenodd" d="M234.667 800.333C233.694 800.333 232.762 800.72 232.074 801.407C231.386 802.095 231 803.028 231 804V816C231 816.972 231.386 817.905 232.074 818.593C232.762 819.28 233.694 819.667 234.667 819.667H253.333C254.306 819.667 255.238 819.28 255.926 818.593C256.614 817.905 257 816.972 257 816V804C257 803.028 256.614 802.095 255.926 801.407C255.238 800.72 254.306 800.333 253.333 800.333H234.667ZM250 808.333C249.558 808.333 249.134 808.509 248.821 808.821C248.509 809.134 248.333 809.558 248.333 810C248.333 810.442 248.509 810.866 248.821 811.178C249.134 811.491 249.558 811.667 250 811.667C250.442 811.667 250.866 811.491 251.179 811.178C251.491 810.866 251.667 810.442 251.667 810C251.667 809.558 251.491 809.134 251.179 808.821C250.866 808.509 250.442 808.333 250 808.333Z" fill="#AAB3B0"/>
<path d="M249.98 796.092C250.375 795.987 250.788 795.974 251.189 796.054C251.59 796.134 251.967 796.305 252.291 796.554C252.615 796.802 252.877 797.122 253.058 797.489C253.239 797.855 253.333 798.258 253.333 798.667H240L249.98 796.092Z" fill="#AAB3B0"/>
<path d="M331.5 809.5C330.171 809.5 329.033 809.027 328.086 808.08C327.14 807.134 326.667 805.996 326.667 804.667C326.667 803.337 327.14 802.2 328.086 801.253C329.033 800.307 330.171 799.833 331.5 799.833C332.829 799.833 333.967 800.307 334.914 801.253C335.86 802.2 336.333 803.337 336.333 804.667C336.333 805.996 335.86 807.134 334.914 808.08C333.967 809.027 332.829 809.5 331.5 809.5ZM321.833 816.75V815.783C321.833 815.099 322.01 814.469 322.363 813.896C322.715 813.322 323.183 812.884 323.767 812.581C325.015 811.957 326.284 811.489 327.573 811.177C328.862 810.865 330.171 810.709 331.5 810.708C332.829 810.708 334.138 810.864 335.427 811.177C336.716 811.491 337.985 811.959 339.233 812.581C339.817 812.883 340.286 813.322 340.639 813.896C340.991 814.47 341.167 815.099 341.167 815.783V816.75C341.167 817.415 340.93 817.984 340.457 818.457C339.984 818.931 339.415 819.167 338.75 819.167H324.25C323.585 819.167 323.017 818.93 322.544 818.457C322.071 817.984 321.834 817.415 321.833 816.75ZM324.25 816.75H338.75V815.783C338.75 815.562 338.695 815.36 338.584 815.179C338.474 814.998 338.328 814.857 338.146 814.756C337.058 814.212 335.961 813.805 334.853 813.533C333.745 813.262 332.628 813.126 331.5 813.125C330.372 813.124 329.254 813.26 328.147 813.533C327.039 813.806 325.942 814.214 324.854 814.756C324.673 814.857 324.527 814.998 324.416 815.179C324.304 815.36 324.249 815.562 324.25 815.783V816.75ZM331.5 807.083C332.165 807.083 332.734 806.847 333.207 806.374C333.681 805.901 333.917 805.332 333.917 804.667C333.916 804.001 333.679 803.433 333.207 802.96C332.735 802.488 332.166 802.252 331.5 802.25C330.834 802.248 330.265 802.485 329.794 802.96C329.323 803.436 329.086 804.004 329.083 804.667C329.081 805.329 329.318 805.898 329.794 806.374C330.27 806.85 330.839 807.087 331.5 807.083Z" fill="black"/>
<path d="M59.7891 840V832H61.2383V835.387H64.9453V832H66.3984V840H64.9453V836.602H61.2383V840H59.7891ZM70.5293 840.117C69.9434 840.117 69.4355 839.988 69.0059 839.73C68.5762 839.473 68.2428 839.112 68.0059 838.648C67.7715 838.185 67.6543 837.643 67.6543 837.023C67.6543 836.404 67.7715 835.861 68.0059 835.395C68.2428 834.928 68.5762 834.566 69.0059 834.309C69.4355 834.051 69.9434 833.922 70.5293 833.922C71.1152 833.922 71.623 834.051 72.0527 834.309C72.4824 834.566 72.8145 834.928 73.0488 835.395C73.2858 835.861 73.4043 836.404 73.4043 837.023C73.4043 837.643 73.2858 838.185 73.0488 838.648C72.8145 839.112 72.4824 839.473 72.0527 839.73C71.623 839.988 71.1152 840.117 70.5293 840.117ZM70.5371 838.984C70.8548 838.984 71.1204 838.897 71.334 838.723C71.5475 838.546 71.7064 838.309 71.8105 838.012C71.9173 837.715 71.9707 837.384 71.9707 837.02C71.9707 836.652 71.9173 836.32 71.8105 836.023C71.7064 835.724 71.5475 835.486 71.334 835.309C71.1204 835.132 70.8548 835.043 70.5371 835.043C70.2116 835.043 69.9408 835.132 69.7246 835.309C69.5111 835.486 69.3509 835.724 69.2441 836.023C69.14 836.32 69.0879 836.652 69.0879 837.02C69.0879 837.384 69.14 837.715 69.2441 838.012C69.3509 838.309 69.5111 838.546 69.7246 838.723C69.9408 838.897 70.2116 838.984 70.5371 838.984ZM74.6045 840V834H75.9561V835.02H76.0264C76.1514 834.676 76.3584 834.408 76.6475 834.215C76.9365 834.02 77.2816 833.922 77.6826 833.922C78.0889 833.922 78.4313 834.021 78.71 834.219C78.9912 834.414 79.1891 834.681 79.3037 835.02H79.3662C79.499 834.686 79.723 834.421 80.0381 834.223C80.3558 834.022 80.7321 833.922 81.167 833.922C81.7191 833.922 82.1696 834.096 82.5186 834.445C82.8675 834.794 83.042 835.303 83.042 835.973V840H81.624V836.191C81.624 835.819 81.5251 835.547 81.3271 835.375C81.1292 835.201 80.887 835.113 80.6006 835.113C80.2594 835.113 79.9925 835.22 79.7998 835.434C79.6097 835.645 79.5146 835.919 79.5146 836.258V840H78.1279V836.133C78.1279 835.823 78.0342 835.576 77.8467 835.391C77.6618 835.206 77.4196 835.113 77.1201 835.113C76.917 835.113 76.7321 835.165 76.5654 835.27C76.3988 835.371 76.266 835.516 76.167 835.703C76.068 835.888 76.0186 836.104 76.0186 836.352V840H74.6045ZM87.1328 840.117C86.5313 840.117 86.0117 839.992 85.5742 839.742C85.1393 839.49 84.8047 839.133 84.5703 838.672C84.3359 838.208 84.2188 837.663 84.2188 837.035C84.2188 836.418 84.3359 835.876 84.5703 835.41C84.8073 834.941 85.138 834.577 85.5625 834.316C85.987 834.053 86.4857 833.922 87.0586 833.922C87.4284 833.922 87.7773 833.982 88.1055 834.102C88.4362 834.219 88.7279 834.401 88.9805 834.648C89.2357 834.896 89.4362 835.211 89.582 835.594C89.7279 835.974 89.8008 836.427 89.8008 836.953V837.387H84.8828V836.434H88.4453C88.4427 836.163 88.3841 835.922 88.2695 835.711C88.1549 835.497 87.9948 835.329 87.7891 835.207C87.5859 835.085 87.349 835.023 87.0781 835.023C86.7891 835.023 86.5352 835.094 86.3164 835.234C86.0977 835.372 85.9271 835.555 85.8047 835.781C85.6849 836.005 85.6237 836.251 85.6211 836.52V837.352C85.6211 837.701 85.6849 838 85.8125 838.25C85.9401 838.497 86.1185 838.687 86.3477 838.82C86.5768 838.951 86.8451 839.016 87.1523 839.016C87.3581 839.016 87.5443 838.987 87.7109 838.93C87.8776 838.87 88.0221 838.783 88.1445 838.668C88.2669 838.553 88.3594 838.411 88.4219 838.242L89.7422 838.391C89.6589 838.74 89.5 839.044 89.2656 839.305C89.0339 839.562 88.737 839.763 88.375 839.906C88.013 840.047 87.599 840.117 87.1328 840.117Z" fill="#AAB3B0"/>
<path d="M155.938 836C155.938 836.862 155.776 837.6 155.453 838.215C155.133 838.827 154.695 839.296 154.141 839.621C153.589 839.947 152.962 840.109 152.262 840.109C151.561 840.109 150.934 839.947 150.379 839.621C149.827 839.293 149.389 838.823 149.066 838.211C148.746 837.596 148.586 836.859 148.586 836C148.586 835.138 148.746 834.401 149.066 833.789C149.389 833.174 149.827 832.704 150.379 832.379C150.934 832.053 151.561 831.891 152.262 831.891C152.962 831.891 153.589 832.053 154.141 832.379C154.695 832.704 155.133 833.174 155.453 833.789C155.776 834.401 155.938 835.138 155.938 836ZM154.48 836C154.48 835.393 154.385 834.882 154.195 834.465C154.008 834.046 153.747 833.729 153.414 833.516C153.081 833.299 152.697 833.191 152.262 833.191C151.827 833.191 151.443 833.299 151.109 833.516C150.776 833.729 150.514 834.046 150.324 834.465C150.137 834.882 150.043 835.393 150.043 836C150.043 836.607 150.137 837.12 150.324 837.539C150.514 837.956 150.776 838.272 151.109 838.488C151.443 838.702 151.827 838.809 152.262 838.809C152.697 838.809 153.081 838.702 153.414 838.488C153.747 838.272 154.008 837.956 154.195 837.539C154.385 837.12 154.48 836.607 154.48 836ZM157.245 840V834H158.616V835H158.679C158.788 834.654 158.976 834.387 159.241 834.199C159.509 834.009 159.815 833.914 160.159 833.914C160.237 833.914 160.325 833.918 160.421 833.926C160.52 833.931 160.602 833.94 160.667 833.953V835.254C160.607 835.233 160.512 835.215 160.382 835.199C160.254 835.181 160.131 835.172 160.011 835.172C159.753 835.172 159.521 835.228 159.315 835.34C159.112 835.449 158.952 835.602 158.835 835.797C158.718 835.992 158.659 836.217 158.659 836.473V840H157.245ZM163.586 840.105C163.115 840.105 162.693 839.984 162.32 839.742C161.948 839.5 161.654 839.148 161.438 838.687C161.221 838.227 161.113 837.667 161.113 837.008C161.113 836.341 161.223 835.779 161.441 835.32C161.663 834.859 161.961 834.512 162.336 834.277C162.711 834.04 163.129 833.922 163.59 833.922C163.941 833.922 164.23 833.982 164.457 834.102C164.684 834.219 164.863 834.361 164.996 834.527C165.129 834.691 165.232 834.846 165.305 834.992H165.363V832H166.781V840H165.391V839.055H165.305C165.232 839.201 165.126 839.355 164.988 839.52C164.85 839.681 164.668 839.819 164.441 839.934C164.215 840.048 163.93 840.105 163.586 840.105ZM163.98 838.945C164.28 838.945 164.535 838.865 164.746 838.703C164.957 838.539 165.117 838.311 165.227 838.02C165.336 837.728 165.391 837.388 165.391 837C165.391 836.612 165.336 836.275 165.227 835.988C165.12 835.702 164.961 835.479 164.75 835.32C164.542 835.161 164.285 835.082 163.98 835.082C163.665 835.082 163.402 835.164 163.191 835.328C162.98 835.492 162.822 835.719 162.715 836.008C162.608 836.297 162.555 836.628 162.555 837C162.555 837.375 162.608 837.71 162.715 838.004C162.824 838.296 162.984 838.526 163.195 838.695C163.409 838.862 163.671 838.945 163.98 838.945ZM170.944 840.117C170.343 840.117 169.823 839.992 169.386 839.742C168.951 839.49 168.616 839.133 168.382 838.672C168.147 838.208 168.03 837.663 168.03 837.035C168.03 836.418 168.147 835.876 168.382 835.41C168.619 834.941 168.95 834.577 169.374 834.316C169.799 834.053 170.297 833.922 170.87 833.922C171.24 833.922 171.589 833.982 171.917 834.102C172.248 834.219 172.539 834.401 172.792 834.648C173.047 834.896 173.248 835.211 173.394 835.594C173.539 835.974 173.612 836.427 173.612 836.953V837.387H168.694V836.434H172.257C172.254 836.163 172.196 835.922 172.081 835.711C171.966 835.497 171.806 835.329 171.601 835.207C171.397 835.085 171.16 835.023 170.89 835.023C170.601 835.023 170.347 835.094 170.128 835.234C169.909 835.372 169.739 835.555 169.616 835.781C169.496 836.005 169.435 836.251 169.433 836.52V837.352C169.433 837.701 169.496 838 169.624 838.25C169.752 838.497 169.93 838.687 170.159 838.82C170.388 838.951 170.657 839.016 170.964 839.016C171.17 839.016 171.356 838.987 171.522 838.93C171.689 838.87 171.834 838.783 171.956 838.668C172.078 838.553 172.171 838.411 172.233 838.242L173.554 838.391C173.47 838.74 173.312 839.044 173.077 839.305C172.845 839.562 172.549 839.763 172.187 839.906C171.825 840.047 171.41 840.117 170.944 840.117ZM174.809 840V834H176.18V835H176.242C176.352 834.654 176.539 834.387 176.805 834.199C177.073 834.009 177.379 833.914 177.723 833.914C177.801 833.914 177.888 833.918 177.984 833.926C178.083 833.931 178.165 833.94 178.23 833.953V835.254C178.171 835.233 178.076 835.215 177.945 835.199C177.818 835.181 177.694 835.172 177.574 835.172C177.316 835.172 177.085 835.228 176.879 835.34C176.676 835.449 176.516 835.602 176.398 835.797C176.281 835.992 176.223 836.217 176.223 836.473V840H174.809Z" fill="#AAB3B0"/>
<path d="M229.473 840L227.215 832H228.773L230.215 837.879H230.289L231.828 832H233.246L234.789 837.883H234.859L236.301 832H237.859L235.602 840H234.172L232.57 834.387H232.508L230.902 840H229.473ZM239.916 840.121C239.536 840.121 239.193 840.053 238.889 839.918C238.587 839.78 238.347 839.577 238.17 839.309C237.995 839.04 237.908 838.71 237.908 838.316C237.908 837.978 237.971 837.698 238.096 837.477C238.221 837.255 238.391 837.078 238.607 836.945C238.824 836.812 239.067 836.712 239.338 836.645C239.611 836.574 239.894 836.523 240.186 836.492C240.537 836.456 240.822 836.423 241.041 836.395C241.26 836.363 241.419 836.316 241.518 836.254C241.619 836.189 241.67 836.089 241.67 835.953V835.93C241.67 835.635 241.583 835.408 241.408 835.246C241.234 835.085 240.982 835.004 240.654 835.004C240.308 835.004 240.033 835.079 239.83 835.23C239.63 835.382 239.494 835.56 239.424 835.766L238.104 835.578C238.208 835.214 238.38 834.909 238.619 834.664C238.859 834.417 239.152 834.232 239.498 834.109C239.844 833.984 240.227 833.922 240.646 833.922C240.936 833.922 241.223 833.956 241.51 834.023C241.796 834.091 242.058 834.203 242.295 834.359C242.532 834.513 242.722 834.723 242.865 834.988C243.011 835.254 243.084 835.586 243.084 835.984V840H241.725V839.176H241.678C241.592 839.342 241.471 839.499 241.314 839.645C241.161 839.788 240.967 839.904 240.732 839.992C240.501 840.078 240.229 840.121 239.916 840.121ZM240.283 839.082C240.567 839.082 240.813 839.026 241.021 838.914C241.23 838.799 241.39 838.648 241.502 838.461C241.617 838.273 241.674 838.069 241.674 837.848V837.141C241.63 837.177 241.554 837.211 241.447 837.242C241.343 837.273 241.226 837.301 241.096 837.324C240.965 837.348 240.837 837.368 240.709 837.387C240.581 837.405 240.471 837.421 240.377 837.434C240.166 837.462 239.977 837.509 239.811 837.574C239.644 837.639 239.512 837.73 239.416 837.848C239.32 837.962 239.271 838.111 239.271 838.293C239.271 838.553 239.367 838.75 239.557 838.883C239.747 839.016 239.989 839.082 240.283 839.082ZM245.92 832V840H244.506V832H245.92ZM248.788 832V840H247.374V832H248.788ZM252.898 840.117C252.297 840.117 251.777 839.992 251.34 839.742C250.905 839.49 250.57 839.133 250.336 838.672C250.102 838.208 249.984 837.663 249.984 837.035C249.984 836.418 250.102 835.876 250.336 835.41C250.573 834.941 250.904 834.577 251.328 834.316C251.753 834.053 252.251 833.922 252.824 833.922C253.194 833.922 253.543 833.982 253.871 834.102C254.202 834.219 254.493 834.401 254.746 834.648C255.001 834.896 255.202 835.211 255.348 835.594C255.493 835.974 255.566 836.427 255.566 836.953V837.387H250.648V836.434H254.211C254.208 836.163 254.15 835.922 254.035 835.711C253.921 835.497 253.76 835.329 253.555 835.207C253.352 835.085 253.115 835.023 252.844 835.023C252.555 835.023 252.301 835.094 252.082 835.234C251.863 835.372 251.693 835.555 251.57 835.781C251.451 836.005 251.389 836.251 251.387 836.52V837.352C251.387 837.701 251.451 838 251.578 838.25C251.706 838.497 251.884 838.687 252.113 838.82C252.342 838.951 252.611 839.016 252.918 839.016C253.124 839.016 253.31 838.987 253.477 838.93C253.643 838.87 253.788 838.783 253.91 838.668C254.033 838.553 254.125 838.411 254.188 838.242L255.508 838.391C255.424 838.74 255.266 839.044 255.031 839.305C254.799 839.562 254.503 839.763 254.141 839.906C253.779 840.047 253.365 840.117 252.898 840.117ZM259.759 834V835.094H256.31V834H259.759ZM257.161 832.562H258.575V838.195C258.575 838.385 258.604 838.531 258.661 838.633C258.721 838.732 258.799 838.799 258.896 838.836C258.992 838.872 259.099 838.891 259.216 838.891C259.304 838.891 259.385 838.884 259.458 838.871C259.534 838.858 259.591 838.846 259.63 838.836L259.868 839.941C259.793 839.967 259.685 839.996 259.544 840.027C259.406 840.059 259.237 840.077 259.036 840.082C258.682 840.092 258.363 840.039 258.079 839.922C257.795 839.802 257.57 839.617 257.403 839.367C257.239 839.117 257.159 838.805 257.161 838.43V832.562Z" fill="#AAB3B0"/>
<path d="M315.789 840V832H318.789C319.404 832 319.919 832.115 320.336 832.344C320.755 832.573 321.072 832.888 321.285 833.289C321.501 833.687 321.609 834.141 321.609 834.648C321.609 835.161 321.501 835.617 321.285 836.016C321.069 836.414 320.75 836.728 320.328 836.957C319.906 837.184 319.387 837.297 318.77 837.297H316.781V836.105H318.574C318.934 836.105 319.228 836.043 319.457 835.918C319.686 835.793 319.855 835.621 319.965 835.402C320.077 835.184 320.133 834.932 320.133 834.648C320.133 834.365 320.077 834.115 319.965 833.898C319.855 833.682 319.685 833.514 319.453 833.395C319.224 833.272 318.928 833.211 318.566 833.211H317.238V840H315.789ZM322.806 840V834H324.177V835H324.239C324.349 834.654 324.536 834.387 324.802 834.199C325.07 834.009 325.376 833.914 325.72 833.914C325.798 833.914 325.885 833.918 325.981 833.926C326.08 833.931 326.162 833.94 326.228 833.953V835.254C326.168 835.233 326.073 835.215 325.942 835.199C325.815 835.181 325.691 835.172 325.571 835.172C325.313 835.172 325.082 835.228 324.876 835.34C324.673 835.449 324.513 835.602 324.396 835.797C324.278 835.992 324.22 836.217 324.22 836.473V840H322.806ZM329.537 840.117C328.951 840.117 328.443 839.988 328.014 839.73C327.584 839.473 327.251 839.112 327.014 838.648C326.779 838.185 326.662 837.643 326.662 837.023C326.662 836.404 326.779 835.861 327.014 835.395C327.251 834.928 327.584 834.566 328.014 834.309C328.443 834.051 328.951 833.922 329.537 833.922C330.123 833.922 330.631 834.051 331.061 834.309C331.49 834.566 331.822 834.928 332.057 835.395C332.294 835.861 332.412 836.404 332.412 837.023C332.412 837.643 332.294 838.185 332.057 838.648C331.822 839.112 331.49 839.473 331.061 839.73C330.631 839.988 330.123 840.117 329.537 840.117ZM329.545 838.984C329.863 838.984 330.128 838.897 330.342 838.723C330.555 838.546 330.714 838.309 330.818 838.012C330.925 837.715 330.979 837.384 330.979 837.02C330.979 836.652 330.925 836.32 330.818 836.023C330.714 835.724 330.555 835.486 330.342 835.309C330.128 835.132 329.863 835.043 329.545 835.043C329.219 835.043 328.949 835.132 328.732 835.309C328.519 835.486 328.359 835.724 328.252 836.023C328.148 836.32 328.096 836.652 328.096 837.02C328.096 837.384 328.148 837.715 328.252 838.012C328.359 838.309 328.519 838.546 328.732 838.723C328.949 838.897 329.219 838.984 329.545 838.984ZM336.651 834V835.094H333.104V834H336.651ZM333.991 840V833.434C333.991 833.03 334.075 832.694 334.241 832.426C334.41 832.158 334.637 831.957 334.921 831.824C335.205 831.691 335.52 831.625 335.866 831.625C336.111 831.625 336.328 831.645 336.519 831.684C336.709 831.723 336.849 831.758 336.94 831.789L336.659 832.883C336.599 832.865 336.524 832.846 336.433 832.828C336.341 832.807 336.24 832.797 336.128 832.797C335.865 832.797 335.679 832.861 335.569 832.988C335.463 833.113 335.409 833.293 335.409 833.527V840H333.991ZM337.759 840V834H339.173V840H337.759ZM338.47 833.148C338.246 833.148 338.053 833.074 337.892 832.926C337.73 832.775 337.649 832.594 337.649 832.383C337.649 832.169 337.73 831.988 337.892 831.84C338.053 831.689 338.246 831.613 338.47 831.613C338.696 831.613 338.889 831.689 339.048 831.84C339.209 831.988 339.29 832.169 339.29 832.383C339.29 832.594 339.209 832.775 339.048 832.926C338.889 833.074 338.696 833.148 338.47 833.148ZM342.041 832V840H340.627V832H342.041ZM346.151 840.117C345.55 840.117 345.03 839.992 344.593 839.742C344.158 839.49 343.823 839.133 343.589 838.672C343.354 838.208 343.237 837.663 343.237 837.035C343.237 836.418 343.354 835.876 343.589 835.41C343.826 834.941 344.157 834.577 344.581 834.316C345.006 834.053 345.504 833.922 346.077 833.922C346.447 833.922 346.796 833.982 347.124 834.102C347.455 834.219 347.746 834.401 347.999 834.648C348.254 834.896 348.455 835.211 348.601 835.594C348.746 835.974 348.819 836.427 348.819 836.953V837.387H343.901V836.434H347.464C347.461 836.163 347.403 835.922 347.288 835.711C347.174 835.497 347.013 835.329 346.808 835.207C346.604 835.085 346.368 835.023 346.097 835.023C345.808 835.023 345.554 835.094 345.335 835.234C345.116 835.372 344.946 835.555 344.823 835.781C344.703 836.005 344.642 836.251 344.64 836.52V837.352C344.64 837.701 344.703 838 344.831 838.25C344.959 838.497 345.137 838.687 345.366 838.82C345.595 838.951 345.864 839.016 346.171 839.016C346.377 839.016 346.563 838.987 346.729 838.93C346.896 838.87 347.041 838.783 347.163 838.668C347.285 838.553 347.378 838.411 347.44 838.242L348.761 838.391C348.677 838.74 348.519 839.044 348.284 839.305C348.052 839.562 347.756 839.763 347.394 839.906C347.032 840.047 346.618 840.117 346.151 840.117Z" fill="black"/>
<path d="M412 186H258.39C265.091 175.989 269 163.951 269 151C269 116.206 240.794 88 206 88C171.206 88 143 116.206 143 151C143 163.951 146.909 175.989 153.61 186H0V0H412V186Z" fill="#212524"/>
<circle cx="206.5" cy="149.5" r="56.5" fill="black" fill-opacity="0.25"/>
<rect x="156" y="222" width="100" height="31" rx="15.5" fill="black"/>
<path d="M192.076 243V232.091H199.171V233.748H194.052V236.709H198.804V238.366H194.052V241.343H199.214V243H192.076ZM204.138 243.144C203.496 243.144 202.92 242.979 202.412 242.648C201.905 242.318 201.503 241.839 201.209 241.21C200.914 240.582 200.767 239.818 200.767 238.92C200.767 238.011 200.916 237.244 201.214 236.619C201.516 235.99 201.922 235.516 202.434 235.196C202.945 234.873 203.515 234.712 204.144 234.712C204.623 234.712 205.017 234.793 205.326 234.957C205.635 235.116 205.88 235.31 206.061 235.537C206.242 235.761 206.383 235.972 206.482 236.171H206.562V232.091H208.496V243H206.599V241.711H206.482C206.383 241.91 206.239 242.121 206.051 242.345C205.862 242.565 205.614 242.753 205.305 242.909C204.996 243.066 204.607 243.144 204.138 243.144ZM204.676 241.562C205.085 241.562 205.433 241.452 205.72 241.232C206.008 241.008 206.226 240.697 206.376 240.299C206.525 239.902 206.599 239.438 206.599 238.909C206.599 238.38 206.525 237.92 206.376 237.529C206.23 237.139 206.013 236.835 205.726 236.619C205.442 236.402 205.092 236.294 204.676 236.294C204.247 236.294 203.888 236.406 203.6 236.629C203.313 236.853 203.096 237.162 202.95 237.556C202.805 237.95 202.732 238.401 202.732 238.909C202.732 239.42 202.805 239.877 202.95 240.278C203.1 240.676 203.318 240.99 203.606 241.221C203.897 241.448 204.254 241.562 204.676 241.562ZM210.55 243V234.818H212.479V243H210.55ZM211.52 233.657C211.214 233.657 210.952 233.556 210.731 233.353C210.511 233.147 210.401 232.901 210.401 232.613C210.401 232.322 210.511 232.075 210.731 231.873C210.952 231.667 211.214 231.564 211.52 231.564C211.829 231.564 212.092 231.667 212.308 231.873C212.528 232.075 212.638 232.322 212.638 232.613C212.638 232.901 212.528 233.147 212.308 233.353C212.092 233.556 211.829 233.657 211.52 233.657ZM218.547 234.818V236.31H213.844V234.818H218.547ZM215.005 232.858H216.933V240.539C216.933 240.798 216.972 240.997 217.05 241.136C217.132 241.271 217.238 241.363 217.37 241.413C217.501 241.462 217.647 241.487 217.807 241.487C217.927 241.487 218.037 241.478 218.137 241.461C218.24 241.443 218.318 241.427 218.371 241.413L218.696 242.92C218.593 242.956 218.446 242.995 218.254 243.037C218.066 243.08 217.835 243.105 217.562 243.112C217.079 243.126 216.644 243.053 216.257 242.893C215.869 242.73 215.562 242.478 215.335 242.137C215.111 241.796 215.001 241.37 215.005 240.859V232.858Z" fill="white"/>
<rect y="311" width="412" height="354" fill="white"/>
<path d="M44.0057 337.545C44.0057 338.721 43.7856 339.728 43.3452 340.566C42.9084 341.4 42.3119 342.039 41.5555 342.483C40.8026 342.927 39.9486 343.149 38.9933 343.149C38.0381 343.149 37.1822 342.927 36.4258 342.483C35.673 342.036 35.0764 341.395 34.6361 340.56C34.1993 339.722 33.9809 338.717 33.9809 337.545C33.9809 336.37 34.1993 335.365 34.6361 334.531C35.0764 333.692 35.673 333.051 36.4258 332.608C37.1822 332.164 38.0381 331.942 38.9933 331.942C39.9486 331.942 40.8026 332.164 41.5555 332.608C42.3119 333.051 42.9084 333.692 43.3452 334.531C43.7856 335.365 44.0057 336.37 44.0057 337.545ZM42.0189 337.545C42.0189 336.718 41.8893 336.02 41.63 335.452C41.3744 334.88 41.0192 334.449 40.5647 334.158C40.1102 333.863 39.5864 333.716 38.9933 333.716C38.4003 333.716 37.8765 333.863 37.4219 334.158C36.9674 334.449 36.6105 334.88 36.3513 335.452C36.0956 336.02 35.9678 336.718 35.9678 337.545C35.9678 338.373 36.0956 339.072 36.3513 339.644C36.6105 340.212 36.9674 340.644 37.4219 340.939C37.8765 341.23 38.4003 341.375 38.9933 341.375C39.5864 341.375 40.1102 341.23 40.5647 340.939C41.0192 340.644 41.3744 340.212 41.63 339.644C41.8893 339.072 42.0189 338.373 42.0189 337.545ZM45.7889 343V334.818H47.6585V336.182H47.7438C47.8929 335.71 48.1486 335.346 48.5108 335.09C48.8766 334.831 49.2938 334.701 49.7626 334.701C49.8691 334.701 49.9881 334.706 50.1195 334.717C50.2544 334.724 50.3663 334.737 50.4551 334.754V336.528C50.3734 336.5 50.2438 336.475 50.0662 336.453C49.8922 336.429 49.7235 336.416 49.5602 336.416C49.2086 336.416 48.8926 336.493 48.612 336.645C48.335 336.794 48.1166 337.002 47.9568 337.268C47.797 337.535 47.7171 337.842 47.7171 338.19V343H45.7889ZM54.4354 343.144C53.7927 343.144 53.2174 342.979 52.7096 342.648C52.2018 342.318 51.8005 341.839 51.5057 341.21C51.211 340.582 51.0636 339.818 51.0636 338.92C51.0636 338.011 51.2128 337.244 51.5111 336.619C51.8129 335.99 52.2195 335.516 52.7309 335.196C53.2423 334.873 53.8122 334.712 54.4408 334.712C54.9202 334.712 55.3143 334.793 55.6233 334.957C55.9322 335.116 56.1773 335.31 56.3584 335.537C56.5395 335.761 56.6798 335.972 56.7792 336.171H56.8591V332.091H58.7927V343H56.8964V341.711H56.7792C56.6798 341.91 56.5359 342.121 56.3477 342.345C56.1595 342.565 55.9109 342.753 55.602 342.909C55.293 343.066 54.9042 343.144 54.4354 343.144ZM54.9734 341.562C55.3818 341.562 55.7298 341.452 56.0175 341.232C56.3051 341.008 56.5235 340.697 56.6727 340.299C56.8218 339.902 56.8964 339.438 56.8964 338.909C56.8964 338.38 56.8218 337.92 56.6727 337.529C56.5271 337.139 56.3104 336.835 56.0228 336.619C55.7387 336.402 55.3889 336.294 54.9734 336.294C54.5437 336.294 54.1851 336.406 53.8974 336.629C53.6098 336.853 53.3932 337.162 53.2476 337.556C53.102 337.95 53.0292 338.401 53.0292 338.909C53.0292 339.42 53.102 339.877 53.2476 340.278C53.3967 340.676 53.6151 340.99 53.9028 341.221C54.194 341.448 54.5508 341.562 54.9734 341.562ZM64.4696 343.16C63.6493 343.16 62.9409 342.989 62.3443 342.648C61.7512 342.304 61.2949 341.817 60.9753 341.189C60.6557 340.557 60.4959 339.813 60.4959 338.957C60.4959 338.115 60.6557 337.377 60.9753 336.741C61.2985 336.102 61.7494 335.605 62.3283 335.25C62.9071 334.891 63.5872 334.712 64.3684 334.712C64.8727 334.712 65.3485 334.793 65.796 334.957C66.247 335.116 66.6447 335.365 66.9891 335.702C67.3372 336.04 67.6106 336.469 67.8095 336.991C68.0083 337.51 68.1078 338.128 68.1078 338.845V339.436H61.4014V338.137H66.2594C66.2558 337.767 66.1759 337.439 66.0197 337.151C65.8634 336.86 65.645 336.631 65.3645 336.464C65.0875 336.297 64.7644 336.214 64.395 336.214C64.0009 336.214 63.6546 336.31 63.3563 336.501C63.058 336.69 62.8254 336.938 62.6585 337.247C62.4952 337.553 62.4117 337.888 62.4082 338.254V339.388C62.4082 339.864 62.4952 340.273 62.6692 340.614C62.8432 340.951 63.0864 341.21 63.3989 341.391C63.7114 341.569 64.0772 341.658 64.4962 341.658C64.7768 341.658 65.0307 341.619 65.258 341.54C65.4852 341.459 65.6823 341.34 65.8492 341.184C66.0161 341.027 66.1422 340.834 66.2274 340.603L68.0279 340.805C67.9142 341.281 67.6976 341.697 67.378 342.052C67.0619 342.403 66.6571 342.677 66.1635 342.872C65.6699 343.064 65.1053 343.16 64.4696 343.16ZM69.7391 343V334.818H71.6087V336.182H71.694C71.8431 335.71 72.0988 335.346 72.461 335.09C72.8268 334.831 73.244 334.701 73.7128 334.701C73.8193 334.701 73.9383 334.706 74.0697 334.717C74.2046 334.724 74.3165 334.737 74.4053 334.754V336.528C74.3236 336.5 74.194 336.475 74.0164 336.453C73.8424 336.429 73.6737 336.416 73.5104 336.416C73.1588 336.416 72.8428 336.493 72.5622 336.645C72.2852 336.794 72.0668 337.002 71.907 337.268C71.7472 337.535 71.6673 337.842 71.6673 338.19V343H69.7391ZM79.4923 343V332.091H81.4685V336.709H86.5235V332.091H88.505V343H86.5235V338.366H81.4685V343H79.4923ZM90.5691 343V334.818H92.4974V343H90.5691ZM91.5386 333.657C91.2332 333.657 90.9704 333.556 90.7502 333.353C90.5301 333.147 90.42 332.901 90.42 332.613C90.42 332.322 90.5301 332.075 90.7502 331.873C90.9704 331.667 91.2332 331.564 91.5386 331.564C91.8475 331.564 92.1103 331.667 92.3269 331.873C92.5471 332.075 92.6572 332.322 92.6572 332.613C92.6572 332.901 92.5471 333.147 92.3269 333.353C92.1103 333.556 91.8475 333.657 91.5386 333.657ZM100.947 336.981L99.1891 337.173C99.1394 336.995 99.0524 336.828 98.9281 336.672C98.8073 336.516 98.644 336.39 98.438 336.294C98.232 336.198 97.9799 336.15 97.6816 336.15C97.2803 336.15 96.943 336.237 96.6695 336.411C96.3997 336.585 96.2665 336.81 96.27 337.087C96.2665 337.325 96.3535 337.519 96.5311 337.668C96.7122 337.817 97.0105 337.94 97.4259 338.036L98.8215 338.334C99.5957 338.501 100.171 338.765 100.547 339.127C100.927 339.49 101.119 339.964 101.123 340.55C101.119 341.065 100.968 341.519 100.67 341.913C100.375 342.304 99.965 342.609 99.4394 342.83C98.9139 343.05 98.3102 343.16 97.6284 343.16C96.6269 343.16 95.8208 342.95 95.21 342.531C94.5992 342.109 94.2352 341.521 94.1181 340.768L95.9984 340.587C96.0836 340.956 96.2647 341.235 96.5417 341.423C96.8187 341.612 97.1791 341.706 97.623 341.706C98.0811 341.706 98.4487 341.612 98.7257 341.423C99.0062 341.235 99.1465 341.002 99.1465 340.725C99.1465 340.491 99.0559 340.298 98.8748 340.145C98.6972 339.992 98.4203 339.875 98.0438 339.793L96.6482 339.5C95.8634 339.337 95.2828 339.062 94.9064 338.675C94.53 338.284 94.3436 337.79 94.3471 337.194C94.3436 336.69 94.4803 336.253 94.7573 335.884C95.0378 335.511 95.4266 335.223 95.9238 335.021C96.4245 334.815 97.0016 334.712 97.655 334.712C98.6138 334.712 99.3684 334.916 99.9188 335.324C100.473 335.733 100.815 336.285 100.947 336.981ZM106.798 334.818V336.31H102.095V334.818H106.798ZM103.256 332.858H105.184V340.539C105.184 340.798 105.223 340.997 105.301 341.136C105.383 341.271 105.49 341.363 105.621 341.413C105.752 341.462 105.898 341.487 106.058 341.487C106.179 341.487 106.289 341.478 106.388 341.461C106.491 341.443 106.569 341.427 106.622 341.413L106.947 342.92C106.844 342.956 106.697 342.995 106.505 343.037C106.317 343.08 106.086 343.105 105.813 343.112C105.33 343.126 104.895 343.053 104.508 342.893C104.121 342.73 103.814 342.478 103.586 342.137C103.363 341.796 103.252 341.37 103.256 340.859V332.858ZM111.892 343.16C111.093 343.16 110.4 342.984 109.815 342.632C109.229 342.281 108.774 341.789 108.451 341.157C108.131 340.525 107.971 339.786 107.971 338.941C107.971 338.096 108.131 337.355 108.451 336.72C108.774 336.084 109.229 335.591 109.815 335.239C110.4 334.887 111.093 334.712 111.892 334.712C112.691 334.712 113.383 334.887 113.969 335.239C114.555 335.591 115.008 336.084 115.328 336.72C115.651 337.355 115.812 338.096 115.812 338.941C115.812 339.786 115.651 340.525 115.328 341.157C115.008 341.789 114.555 342.281 113.969 342.632C113.383 342.984 112.691 343.16 111.892 343.16ZM111.903 341.615C112.336 341.615 112.698 341.496 112.989 341.258C113.28 341.017 113.497 340.694 113.639 340.289C113.785 339.884 113.857 339.433 113.857 338.936C113.857 338.435 113.785 337.982 113.639 337.577C113.497 337.169 113.28 336.844 112.989 336.603C112.698 336.361 112.336 336.24 111.903 336.24C111.459 336.24 111.089 336.361 110.795 336.603C110.503 336.844 110.285 337.169 110.139 337.577C109.997 337.982 109.926 338.435 109.926 338.936C109.926 339.433 109.997 339.884 110.139 340.289C110.285 340.694 110.503 341.017 110.795 341.258C111.089 341.496 111.459 341.615 111.903 341.615ZM117.449 343V334.818H119.319V336.182H119.404C119.553 335.71 119.809 335.346 120.171 335.09C120.537 334.831 120.954 334.701 121.423 334.701C121.529 334.701 121.648 334.706 121.78 334.717C121.915 334.724 122.026 334.737 122.115 334.754V336.528C122.034 336.5 121.904 336.475 121.726 336.453C121.552 336.429 121.384 336.416 121.22 336.416C120.869 336.416 120.553 336.493 120.272 336.645C119.995 336.794 119.777 337.002 119.617 337.268C119.457 337.535 119.377 337.842 119.377 338.19V343H117.449ZM124.844 346.068C124.581 346.068 124.338 346.047 124.114 346.004C123.894 345.965 123.718 345.919 123.587 345.866L124.034 344.364C124.315 344.445 124.565 344.484 124.785 344.481C125.005 344.477 125.199 344.408 125.366 344.273C125.536 344.142 125.68 343.922 125.797 343.613L125.962 343.17L122.995 334.818H125.041L126.927 340.997H127.012L128.903 334.818H130.954L127.678 343.991C127.525 344.424 127.323 344.795 127.07 345.104C126.818 345.417 126.509 345.654 126.144 345.818C125.781 345.985 125.348 346.068 124.844 346.068Z" fill="black"/>
<path d="M34.2579 391V380.091H41.2465V381.748H36.2341V384.709H40.7671V386.366H36.2341V391H34.2579ZM45.2429 391.165C44.7244 391.165 44.2574 391.073 43.842 390.888C43.43 390.7 43.1033 390.423 42.8618 390.057C42.6239 389.691 42.5049 389.24 42.5049 388.704C42.5049 388.243 42.5902 387.861 42.7606 387.559C42.9311 387.257 43.1637 387.016 43.4584 386.835C43.7532 386.653 44.0852 386.517 44.4545 386.424C44.8274 386.328 45.2127 386.259 45.6104 386.217C46.0898 386.167 46.4787 386.123 46.777 386.083C47.0753 386.041 47.2919 385.977 47.4268 385.892C47.5653 385.803 47.6346 385.666 47.6346 385.482V385.45C47.6346 385.048 47.5156 384.738 47.2777 384.517C47.0398 384.297 46.6971 384.187 46.2496 384.187C45.7773 384.187 45.4027 384.29 45.1257 384.496C44.8523 384.702 44.6676 384.945 44.5717 385.226L42.7713 384.97C42.9133 384.473 43.1477 384.058 43.4744 383.724C43.8011 383.386 44.2006 383.134 44.6729 382.967C45.1452 382.797 45.6672 382.712 46.239 382.712C46.6331 382.712 47.0255 382.758 47.4162 382.85C47.8068 382.942 48.1637 383.095 48.4868 383.308C48.81 383.518 49.0692 383.804 49.2645 384.166C49.4634 384.528 49.5628 384.981 49.5628 385.524V391H47.7091V389.876H47.6452C47.528 390.103 47.3629 390.316 47.1498 390.515C46.9403 390.711 46.6758 390.869 46.3562 390.989C46.0401 391.107 45.669 391.165 45.2429 391.165ZM45.7436 389.748C46.1307 389.748 46.4662 389.672 46.7503 389.519C47.0344 389.363 47.2528 389.157 47.4055 388.901C47.5618 388.646 47.6399 388.367 47.6399 388.065V387.101C47.5795 387.151 47.4765 387.197 47.3309 387.239C47.1889 387.282 47.0291 387.319 46.8515 387.351C46.674 387.383 46.4982 387.412 46.3242 387.436C46.1502 387.461 45.9993 387.483 45.8714 387.5C45.5838 387.539 45.3263 387.603 45.0991 387.692C44.8718 387.781 44.6924 387.905 44.5611 388.065C44.4297 388.221 44.364 388.424 44.364 388.672C44.364 389.027 44.4936 389.295 44.7528 389.477C45.0121 389.658 45.3423 389.748 45.7436 389.748ZM58.517 382.818L55.6033 391H53.4726L50.5589 382.818H52.615L54.4954 388.896H54.5806L56.4662 382.818H58.517ZM63.1419 391.16C62.3429 391.16 61.6505 390.984 61.0645 390.632C60.4786 390.281 60.024 389.789 59.7009 389.157C59.3813 388.525 59.2215 387.786 59.2215 386.941C59.2215 386.096 59.3813 385.355 59.7009 384.72C60.024 384.084 60.4786 383.591 61.0645 383.239C61.6505 382.887 62.3429 382.712 63.1419 382.712C63.9409 382.712 64.6334 382.887 65.2193 383.239C65.8053 383.591 66.2581 384.084 66.5777 384.72C66.9008 385.355 67.0624 386.096 67.0624 386.941C67.0624 387.786 66.9008 388.525 66.5777 389.157C66.2581 389.789 65.8053 390.281 65.2193 390.632C64.6334 390.984 63.9409 391.16 63.1419 391.16ZM63.1526 389.615C63.5858 389.615 63.948 389.496 64.2392 389.258C64.5304 389.017 64.747 388.694 64.8891 388.289C65.0347 387.884 65.1075 387.433 65.1075 386.936C65.1075 386.435 65.0347 385.982 64.8891 385.577C64.747 385.169 64.5304 384.844 64.2392 384.603C63.948 384.361 63.5858 384.24 63.1526 384.24C62.7087 384.24 62.3394 384.361 62.0446 384.603C61.7534 384.844 61.535 385.169 61.3894 385.577C61.2474 385.982 61.1764 386.435 61.1764 386.936C61.1764 387.433 61.2474 387.884 61.3894 388.289C61.535 388.694 61.7534 389.017 62.0446 389.258C62.3394 389.496 62.7087 389.615 63.1526 389.615ZM73.9139 387.559V382.818H75.8421V391H73.9725V389.546H73.8872C73.7026 390.004 73.3989 390.379 72.9764 390.67C72.5573 390.961 72.0406 391.107 71.4263 391.107C70.8901 391.107 70.416 390.988 70.0041 390.75C69.5957 390.508 69.2761 390.158 69.0453 389.7C68.8144 389.239 68.699 388.681 68.699 388.028V382.818H70.6273V387.729C70.6273 388.248 70.7693 388.66 71.0534 388.965C71.3375 389.271 71.7104 389.423 72.172 389.423C72.4561 389.423 72.7313 389.354 72.9977 389.216C73.264 389.077 73.4824 388.871 73.6529 388.598C73.8269 388.321 73.9139 387.974 73.9139 387.559ZM77.825 391V382.818H79.6947V384.182H79.7799C79.929 383.71 80.1847 383.346 80.5469 383.09C80.9127 382.831 81.33 382.701 81.7987 382.701C81.9053 382.701 82.0242 382.706 82.1556 382.717C82.2905 382.724 82.4024 382.737 82.4912 382.754V384.528C82.4095 384.5 82.2799 384.475 82.1023 384.453C81.9283 384.429 81.7597 384.416 81.5963 384.416C81.2447 384.416 80.9287 384.493 80.6481 384.645C80.3712 384.794 80.1528 385.002 79.993 385.268C79.8332 385.535 79.7533 385.842 79.7533 386.19V391H77.825ZM83.7723 391V382.818H85.7005V391H83.7723ZM84.7417 381.657C84.4363 381.657 84.1735 381.556 83.9534 381.353C83.7332 381.147 83.6231 380.901 83.6231 380.613C83.6231 380.322 83.7332 380.075 83.9534 379.873C84.1735 379.667 84.4363 379.564 84.7417 379.564C85.0507 379.564 85.3135 379.667 85.5301 379.873C85.7502 380.075 85.8603 380.322 85.8603 380.613C85.8603 380.901 85.7502 381.147 85.5301 381.353C85.3135 381.556 85.0507 381.657 84.7417 381.657ZM91.769 382.818V384.31H87.0655V382.818H91.769ZM88.2267 380.858H90.155V388.539C90.155 388.798 90.194 388.997 90.2722 389.136C90.3538 389.271 90.4604 389.363 90.5918 389.413C90.7232 389.462 90.8688 389.487 91.0286 389.487C91.1493 389.487 91.2594 389.478 91.3588 389.461C91.4618 389.443 91.5399 389.427 91.5932 389.413L91.9181 390.92C91.8151 390.956 91.6678 390.995 91.476 391.037C91.2878 391.08 91.057 391.105 90.7835 391.112C90.3006 391.126 89.8656 391.053 89.4785 390.893C89.0914 390.73 88.7842 390.478 88.557 390.137C88.3333 389.796 88.2232 389.37 88.2267 388.859V380.858ZM96.9159 391.16C96.0956 391.16 95.3871 390.989 94.7905 390.648C94.1975 390.304 93.7412 389.817 93.4216 389.189C93.102 388.557 92.9422 387.813 92.9422 386.957C92.9422 386.115 93.102 385.377 93.4216 384.741C93.7447 384.102 94.1957 383.605 94.7746 383.25C95.3534 382.891 96.0334 382.712 96.8147 382.712C97.319 382.712 97.7948 382.793 98.2423 382.957C98.6932 383.116 99.091 383.365 99.4354 383.702C99.7834 384.04 100.057 384.469 100.256 384.991C100.455 385.51 100.554 386.128 100.554 386.845V387.436H93.8477V386.137H98.7057C98.7021 385.767 98.6222 385.439 98.466 385.151C98.3097 384.86 98.0913 384.631 97.8108 384.464C97.5338 384.297 97.2106 384.214 96.8413 384.214C96.4472 384.214 96.1009 384.31 95.8026 384.501C95.5043 384.69 95.2717 384.938 95.1048 385.247C94.9415 385.553 94.858 385.888 94.8545 386.254V387.388C94.8545 387.864 94.9415 388.273 95.1155 388.614C95.2895 388.951 95.5327 389.21 95.8452 389.391C96.1577 389.569 96.5235 389.658 96.9425 389.658C97.2231 389.658 97.477 389.619 97.7043 389.54C97.9315 389.459 98.1286 389.34 98.2955 389.184C98.4624 389.027 98.5885 388.834 98.6737 388.603L100.474 388.805C100.361 389.281 100.144 389.697 99.8243 390.052C99.5082 390.403 99.1034 390.677 98.6098 390.872C98.1162 391.064 97.5516 391.16 96.9159 391.16ZM108.652 384.981L106.894 385.173C106.844 384.995 106.757 384.828 106.633 384.672C106.512 384.516 106.349 384.39 106.143 384.294C105.937 384.198 105.685 384.15 105.387 384.15C104.985 384.15 104.648 384.237 104.375 384.411C104.105 384.585 103.972 384.81 103.975 385.087C103.972 385.325 104.059 385.519 104.236 385.668C104.417 385.817 104.716 385.94 105.131 386.036L106.527 386.334C107.301 386.501 107.876 386.765 108.252 387.127C108.632 387.49 108.824 387.964 108.828 388.55C108.824 389.065 108.673 389.519 108.375 389.913C108.08 390.304 107.67 390.609 107.145 390.83C106.619 391.05 106.015 391.16 105.333 391.16C104.332 391.16 103.526 390.95 102.915 390.531C102.304 390.109 101.94 389.521 101.823 388.768L103.703 388.587C103.789 388.956 103.97 389.235 104.247 389.423C104.524 389.612 104.884 389.706 105.328 389.706C105.786 389.706 106.154 389.612 106.431 389.423C106.711 389.235 106.852 389.002 106.852 388.725C106.852 388.491 106.761 388.298 106.58 388.145C106.402 387.992 106.125 387.875 105.749 387.793L104.353 387.5C103.569 387.337 102.988 387.062 102.611 386.675C102.235 386.284 102.049 385.79 102.052 385.194C102.049 384.69 102.185 384.253 102.462 383.884C102.743 383.511 103.132 383.223 103.629 383.021C104.13 382.815 104.707 382.712 105.36 382.712C106.319 382.712 107.073 382.916 107.624 383.324C108.178 383.733 108.521 384.285 108.652 384.981Z" fill="black"/>
<path d="M35.2579 438V427.091H39.3488C40.1869 427.091 40.89 427.247 41.4582 427.56C42.0299 427.872 42.4614 428.302 42.7526 428.849C43.0473 429.392 43.1947 430.01 43.1947 430.702C43.1947 431.402 43.0473 432.023 42.7526 432.567C42.4578 433.11 42.0228 433.538 41.4475 433.85C40.8722 434.159 40.1638 434.314 39.3222 434.314H36.6109V432.689H39.0558C39.5459 432.689 39.9472 432.604 40.2597 432.434C40.5722 432.263 40.803 432.029 40.9521 431.73C41.1048 431.432 41.1812 431.089 41.1812 430.702C41.1812 430.315 41.1048 429.974 40.9521 429.68C40.803 429.385 40.5704 429.156 40.2543 428.993C39.9418 428.826 39.5388 428.742 39.0452 428.742H37.2341V438H35.2579ZM47.0339 438.165C46.5154 438.165 46.0485 438.073 45.633 437.888C45.221 437.7 44.8943 437.423 44.6529 437.057C44.4149 436.691 44.296 436.24 44.296 435.704C44.296 435.243 44.3812 434.861 44.5516 434.559C44.7221 434.257 44.9547 434.016 45.2494 433.835C45.5442 433.653 45.8762 433.517 46.2455 433.424C46.6184 433.328 47.0037 433.259 47.4014 433.217C47.8808 433.167 48.2697 433.123 48.568 433.083C48.8663 433.041 49.0829 432.977 49.2178 432.892C49.3563 432.803 49.4256 432.666 49.4256 432.482V432.45C49.4256 432.048 49.3066 431.738 49.0687 431.517C48.8308 431.297 48.4881 431.187 48.0406 431.187C47.5683 431.187 47.1937 431.29 46.9167 431.496C46.6433 431.702 46.4586 431.945 46.3627 432.226L44.5623 431.97C44.7043 431.473 44.9387 431.058 45.2654 430.724C45.5921 430.386 45.9916 430.134 46.4639 429.967C46.9362 429.797 47.4583 429.712 48.03 429.712C48.4242 429.712 48.8166 429.758 49.2072 429.85C49.5978 429.942 49.9547 430.095 50.2779 430.308C50.601 430.518 50.8602 430.804 51.0556 431.166C51.2544 431.528 51.3538 431.981 51.3538 432.524V438H49.5002V436.876H49.4362C49.319 437.103 49.1539 437.316 48.9409 437.515C48.7313 437.711 48.4668 437.869 48.1472 437.989C47.8311 438.107 47.46 438.165 47.0339 438.165ZM47.5346 436.748C47.9217 436.748 48.2573 436.672 48.5413 436.519C48.8254 436.363 49.0438 436.157 49.1965 435.901C49.3528 435.646 49.4309 435.367 49.4309 435.065V434.101C49.3705 434.151 49.2676 434.197 49.122 434.239C48.9799 434.282 48.8201 434.319 48.6426 434.351C48.465 434.383 48.2892 434.412 48.1152 434.436C47.9412 434.461 47.7903 434.483 47.6624 434.5C47.3748 434.539 47.1173 434.603 46.8901 434.692C46.6628 434.781 46.4835 434.905 46.3521 435.065C46.2207 435.221 46.155 435.424 46.155 435.672C46.155 436.027 46.2846 436.295 46.5438 436.477C46.8031 436.658 47.1333 436.748 47.5346 436.748ZM54.1983 441.068C53.9355 441.068 53.6923 441.047 53.4686 441.004C53.2484 440.965 53.0726 440.919 52.9412 440.866L53.3886 439.364C53.6692 439.445 53.9195 439.484 54.1397 439.481C54.3599 439.477 54.5534 439.408 54.7203 439.273C54.8908 439.142 55.0346 438.922 55.1518 438.613L55.3169 438.17L52.3499 429.818H54.3954L56.2811 435.997H56.3663L58.2573 429.818H60.308L57.0321 438.991C56.8794 439.424 56.677 439.795 56.4249 440.104C56.1727 440.417 55.8638 440.654 55.498 440.818C55.1358 440.985 54.7026 441.068 54.1983 441.068ZM61.6424 438V429.818H63.4854V431.208H63.5813C63.7518 430.74 64.0341 430.374 64.4282 430.111C64.8224 429.845 65.2929 429.712 65.8398 429.712C66.3938 429.712 66.8608 429.847 67.2407 430.116C67.6243 430.383 67.8942 430.747 68.0504 431.208H68.1356C68.3167 430.754 68.6221 430.392 69.0518 430.122C69.4851 429.848 69.9982 429.712 70.5912 429.712C71.3441 429.712 71.9584 429.95 72.4343 430.425C72.9101 430.901 73.1481 431.596 73.1481 432.508V438H71.2145V432.806C71.2145 432.299 71.0795 431.928 70.8096 431.693C70.5398 431.455 70.2095 431.336 69.8189 431.336C69.3537 431.336 68.9897 431.482 68.7269 431.773C68.4677 432.061 68.338 432.435 68.338 432.897V438H66.4471V432.727C66.4471 432.304 66.3192 431.967 66.0635 431.714C65.8114 431.462 65.4812 431.336 65.0728 431.336C64.7958 431.336 64.5437 431.407 64.3164 431.549C64.0891 431.688 63.908 431.885 63.7731 432.141C63.6381 432.393 63.5706 432.687 63.5706 433.025V438H61.6424ZM78.7265 438.16C77.9061 438.16 77.1977 437.989 76.6011 437.648C76.0081 437.304 75.5517 436.817 75.2321 436.189C74.9125 435.557 74.7527 434.813 74.7527 433.957C74.7527 433.115 74.9125 432.377 75.2321 431.741C75.5553 431.102 76.0063 430.605 76.5851 430.25C77.164 429.891 77.844 429.712 78.6252 429.712C79.1295 429.712 79.6054 429.793 80.0528 429.957C80.5038 430.116 80.9015 430.365 81.246 430.702C81.594 431.04 81.8674 431.469 82.0663 431.991C82.2652 432.51 82.3646 433.128 82.3646 433.845V434.436H75.6583V433.137H80.5162C80.5127 432.767 80.4328 432.439 80.2765 432.151C80.1203 431.86 79.9019 431.631 79.6213 431.464C79.3443 431.297 79.0212 431.214 78.6519 431.214C78.2577 431.214 77.9115 431.31 77.6132 431.501C77.3149 431.69 77.0823 431.938 76.9154 432.247C76.752 432.553 76.6686 432.888 76.665 433.254V434.388C76.665 434.864 76.752 435.273 76.926 435.614C77.1 435.951 77.3433 436.21 77.6558 436.391C77.9683 436.569 78.3341 436.658 78.7531 436.658C79.0336 436.658 79.2875 436.619 79.5148 436.54C79.7421 436.459 79.9392 436.34 80.1061 436.184C80.273 436.027 80.399 435.834 80.4843 435.603L82.2847 435.805C82.1711 436.281 81.9544 436.697 81.6348 437.052C81.3188 437.403 80.914 437.677 80.4203 437.872C79.9267 438.064 79.3621 438.16 78.7265 438.16ZM85.9242 433.206V438H83.9959V429.818H85.8389V431.208H85.9348C86.123 430.75 86.4231 430.386 86.835 430.116C87.2505 429.847 87.7636 429.712 88.3744 429.712C88.9391 429.712 89.4309 429.832 89.8499 430.074C90.2725 430.315 90.5992 430.665 90.8301 431.123C91.0644 431.581 91.1798 432.137 91.1763 432.79V438H89.248V433.089C89.248 432.542 89.106 432.114 88.8219 431.805C88.5413 431.496 88.1525 431.342 87.6553 431.342C87.318 431.342 87.0179 431.416 86.7551 431.565C86.4959 431.711 86.2917 431.922 86.1426 432.199C85.997 432.476 85.9242 432.812 85.9242 433.206ZM97.2221 429.818V431.31H92.5186V429.818H97.2221ZM93.6798 427.858H95.6081V435.539C95.6081 435.798 95.6472 435.997 95.7253 436.136C95.807 436.271 95.9135 436.363 96.0449 436.413C96.1763 436.462 96.3219 436.487 96.4817 436.487C96.6024 436.487 96.7125 436.478 96.8119 436.461C96.9149 436.443 96.9931 436.427 97.0463 436.413L97.3712 437.92C97.2683 437.956 97.1209 437.995 96.9291 438.037C96.7409 438.08 96.5101 438.105 96.2367 438.112C95.7537 438.126 95.3187 438.053 94.9316 437.893C94.5445 437.73 94.2374 437.478 94.0101 437.137C93.7864 436.796 93.6763 436.37 93.6798 435.859V427.858ZM105.184 431.981L103.426 432.173C103.377 431.995 103.29 431.828 103.165 431.672C103.045 431.516 102.881 431.39 102.675 431.294C102.469 431.198 102.217 431.15 101.919 431.15C101.518 431.15 101.18 431.237 100.907 431.411C100.637 431.585 100.504 431.81 100.507 432.087C100.504 432.325 100.591 432.519 100.768 432.668C100.949 432.817 101.248 432.94 101.663 433.036L103.059 433.334C103.833 433.501 104.408 433.765 104.785 434.127C105.165 434.49 105.356 434.964 105.36 435.55C105.356 436.065 105.206 436.519 104.907 436.913C104.612 437.304 104.202 437.609 103.677 437.83C103.151 438.05 102.547 438.16 101.866 438.16C100.864 438.16 100.058 437.95 99.4473 437.531C98.8365 437.109 98.4725 436.521 98.3554 435.768L100.236 435.587C100.321 435.956 100.502 436.235 100.779 436.423C101.056 436.612 101.416 436.706 101.86 436.706C102.318 436.706 102.686 436.612 102.963 436.423C103.243 436.235 103.384 436.002 103.384 435.725C103.384 435.491 103.293 435.298 103.112 435.145C102.935 434.992 102.658 434.875 102.281 434.793L100.886 434.5C100.101 434.337 99.5201 434.062 99.1437 433.675C98.7673 433.284 98.5809 432.79 98.5844 432.194C98.5809 431.69 98.7176 431.253 98.9946 430.884C99.2751 430.511 99.664 430.223 100.161 430.021C100.662 429.815 101.239 429.712 101.892 429.712C102.851 429.712 103.606 429.916 104.156 430.324C104.71 430.733 105.053 431.285 105.184 431.981Z" fill="black"/>
<path d="M36.7174 475.091L39.5565 483.678H39.6684L42.5022 475.091H44.6755L40.8296 486H38.39L34.5494 475.091H36.7174ZM48.7171 486.16C47.9181 486.16 47.2257 485.984 46.6397 485.632C46.0538 485.281 45.5992 484.789 45.2761 484.157C44.9565 483.525 44.7967 482.786 44.7967 481.941C44.7967 481.096 44.9565 480.355 45.2761 479.72C45.5992 479.084 46.0538 478.591 46.6397 478.239C47.2257 477.887 47.9181 477.712 48.7171 477.712C49.5161 477.712 50.2086 477.887 50.7945 478.239C51.3805 478.591 51.8333 479.084 52.1529 479.72C52.476 480.355 52.6376 481.096 52.6376 481.941C52.6376 482.786 52.476 483.525 52.1529 484.157C51.8333 484.789 51.3805 485.281 50.7945 485.632C50.2086 485.984 49.5161 486.16 48.7171 486.16ZM48.7278 484.615C49.161 484.615 49.5232 484.496 49.8144 484.258C50.1056 484.017 50.3222 483.694 50.4643 483.289C50.6099 482.884 50.6827 482.433 50.6827 481.936C50.6827 481.435 50.6099 480.982 50.4643 480.577C50.3222 480.169 50.1056 479.844 49.8144 479.603C49.5232 479.361 49.161 479.24 48.7278 479.24C48.2839 479.24 47.9146 479.361 47.6198 479.603C47.3286 479.844 47.1102 480.169 46.9646 480.577C46.8226 480.982 46.7516 481.435 46.7516 481.936C46.7516 482.433 46.8226 482.884 46.9646 483.289C47.1102 483.694 47.3286 484.017 47.6198 484.258C47.9146 484.496 48.2839 484.615 48.7278 484.615ZM59.4891 482.559V477.818H61.4173V486H59.5477V484.546H59.4624C59.2778 485.004 58.9741 485.379 58.5516 485.67C58.1325 485.961 57.6158 486.107 57.0015 486.107C56.4653 486.107 55.9912 485.988 55.5793 485.75C55.1709 485.508 54.8513 485.158 54.6205 484.7C54.3896 484.239 54.2742 483.681 54.2742 483.028V477.818H56.2025V482.729C56.2025 483.248 56.3445 483.66 56.6286 483.965C56.9127 484.271 57.2856 484.423 57.7472 484.423C58.0313 484.423 58.3065 484.354 58.5729 484.216C58.8392 484.077 59.0576 483.871 59.228 483.598C59.4021 483.321 59.4891 482.974 59.4891 482.559ZM66.9691 486.16C66.1523 486.16 65.451 485.98 64.865 485.622C64.2826 485.263 63.8334 484.768 63.5174 484.136C63.2049 483.5 63.0486 482.768 63.0486 481.941C63.0486 481.11 63.2084 480.377 63.528 479.741C63.8476 479.102 64.2986 478.605 64.881 478.25C65.467 477.891 66.1594 477.712 66.9584 477.712C67.6225 477.712 68.2102 477.834 68.7216 478.079C69.2365 478.321 69.6466 478.663 69.952 479.107C70.2574 479.548 70.4314 480.062 70.4741 480.652H68.631C68.5564 480.258 68.3789 479.929 68.0983 479.667C67.8214 479.4 67.4503 479.267 66.9851 479.267C66.5909 479.267 66.2447 479.374 65.9464 479.587C65.6481 479.796 65.4155 480.098 65.2486 480.492C65.0852 480.886 65.0035 481.359 65.0035 481.909C65.0035 482.467 65.0852 482.946 65.2486 483.347C65.4119 483.745 65.641 484.052 65.9357 484.269C66.234 484.482 66.5838 484.588 66.9851 484.588C67.2692 484.588 67.5231 484.535 67.7468 484.429C67.9741 484.319 68.164 484.161 68.3167 483.955C68.4694 483.749 68.5742 483.498 68.631 483.203H70.4741C70.4279 483.782 70.2574 484.295 69.9627 484.743C69.6679 485.187 69.2667 485.535 68.7589 485.787C68.251 486.036 67.6545 486.16 66.9691 486.16ZM73.9857 481.206V486H72.0574V475.091H73.9431V479.208H74.039C74.2307 478.747 74.5272 478.383 74.9285 478.116C75.3333 477.847 75.8483 477.712 76.4733 477.712C77.0414 477.712 77.5368 477.831 77.9594 478.069C78.382 478.306 78.7087 478.654 78.9395 479.113C79.1739 479.571 79.2911 480.13 79.2911 480.79V486H77.3628V481.089C77.3628 480.538 77.2208 480.11 76.9367 479.805C76.6561 479.496 76.262 479.342 75.7542 479.342C75.4132 479.342 75.1078 479.416 74.838 479.565C74.5716 479.711 74.3621 479.922 74.2094 480.199C74.0603 480.476 73.9857 480.812 73.9857 481.206ZM84.8788 486.16C84.0585 486.16 83.35 485.989 82.7534 485.648C82.1604 485.304 81.7041 484.817 81.3845 484.189C81.0649 483.557 80.9051 482.813 80.9051 481.957C80.9051 481.115 81.0649 480.377 81.3845 479.741C81.7076 479.102 82.1586 478.605 82.7375 478.25C83.3163 477.891 83.9963 477.712 84.7776 477.712C85.2818 477.712 85.7577 477.793 86.2051 477.957C86.6561 478.116 87.0539 478.365 87.3983 478.702C87.7463 479.04 88.0198 479.469 88.2186 479.991C88.4175 480.51 88.5169 481.128 88.5169 481.845V482.436H81.8106V481.137H86.6686C86.665 480.767 86.5851 480.439 86.4289 480.151C86.2726 479.86 86.0542 479.631 85.7737 479.464C85.4967 479.297 85.1735 479.214 84.8042 479.214C84.41 479.214 84.0638 479.31 83.7655 479.501C83.4672 479.69 83.2346 479.938 83.0677 480.247C82.9044 480.553 82.8209 480.888 82.8174 481.254V482.388C82.8174 482.864 82.9044 483.273 83.0784 483.614C83.2524 483.951 83.4956 484.21 83.8081 484.391C84.1206 484.569 84.4864 484.658 84.9054 484.658C85.186 484.658 85.4399 484.619 85.6671 484.54C85.8944 484.459 86.0915 484.34 86.2584 484.184C86.4253 484.027 86.5514 483.834 86.6366 483.603L88.437 483.805C88.3234 484.281 88.1068 484.697 87.7872 485.052C87.4711 485.403 87.0663 485.677 86.5727 485.872C86.0791 486.064 85.5144 486.16 84.8788 486.16ZM90.1482 486V477.818H92.0179V479.182H92.1031C92.2523 478.71 92.508 478.346 92.8702 478.09C93.236 477.831 93.6532 477.701 94.122 477.701C94.2285 477.701 94.3475 477.706 94.4788 477.717C94.6138 477.724 94.7257 477.737 94.8144 477.754V479.528C94.7328 479.5 94.6031 479.475 94.4256 479.453C94.2516 479.429 94.0829 479.416 93.9195 479.416C93.568 479.416 93.2519 479.493 92.9714 479.645C92.6944 479.794 92.476 480.002 92.3162 480.268C92.1564 480.535 92.0765 480.842 92.0765 481.19V486H90.1482ZM102.562 479.981L100.804 480.173C100.755 479.995 100.668 479.828 100.543 479.672C100.423 479.516 100.259 479.39 100.053 479.294C99.8473 479.198 99.5951 479.15 99.2969 479.15C98.8956 479.15 98.5582 479.237 98.2848 479.411C98.0149 479.585 97.8817 479.81 97.8853 480.087C97.8817 480.325 97.9687 480.519 98.1463 480.668C98.3274 480.817 98.6257 480.94 99.0412 481.036L100.437 481.334C101.211 481.501 101.786 481.765 102.163 482.127C102.543 482.49 102.734 482.964 102.738 483.55C102.734 484.065 102.583 484.519 102.285 484.913C101.99 485.304 101.58 485.609 101.055 485.83C100.529 486.05 99.9254 486.16 99.2436 486.16C98.2422 486.16 97.4361 485.95 96.8253 485.531C96.2145 485.109 95.8505 484.521 95.7333 483.768L97.6136 483.587C97.6988 483.956 97.8799 484.235 98.1569 484.423C98.4339 484.612 98.7944 484.706 99.2383 484.706C99.6964 484.706 100.064 484.612 100.341 484.423C100.621 484.235 100.762 484.002 100.762 483.725C100.762 483.491 100.671 483.298 100.49 483.145C100.312 482.992 100.035 482.875 99.6591 482.793L98.2635 482.5C97.4787 482.337 96.8981 482.062 96.5216 481.675C96.1452 481.284 95.9588 480.79 95.9623 480.194C95.9588 479.69 96.0955 479.253 96.3725 478.884C96.653 478.511 97.0419 478.223 97.539 478.021C98.0398 477.815 98.6168 477.712 99.2702 477.712C100.229 477.712 100.984 477.916 101.534 478.324C102.088 478.733 102.431 479.285 102.562 479.981Z" fill="black"/>
<path d="M41.1865 526.09C41.1368 525.625 40.9273 525.262 40.558 525.003C40.1922 524.744 39.7163 524.614 39.1304 524.614C38.7185 524.614 38.3651 524.676 38.0704 524.801C37.7756 524.925 37.5501 525.094 37.3939 525.307C37.2376 525.52 37.1577 525.763 37.1542 526.037C37.1542 526.264 37.2057 526.461 37.3087 526.628C37.4152 526.795 37.559 526.937 37.7401 527.054C37.9212 527.168 38.1219 527.263 38.342 527.342C38.5622 527.42 38.7842 527.485 39.0079 527.539L40.0306 527.794C40.4425 527.89 40.8385 528.02 41.2185 528.183C41.602 528.347 41.9447 528.553 42.2465 528.801C42.5519 529.05 42.7934 529.35 42.9709 529.701C43.1485 530.053 43.2373 530.465 43.2373 530.937C43.2373 531.576 43.0739 532.139 42.7472 532.626C42.4205 533.109 41.9482 533.487 41.3303 533.76C40.716 534.03 39.972 534.165 39.0984 534.165C38.2497 534.165 37.5129 534.034 36.8879 533.771C36.2664 533.508 35.7799 533.125 35.4283 532.62C35.0803 532.116 34.8921 531.502 34.8637 530.777H36.808C36.8364 531.157 36.9535 531.473 37.1595 531.725C37.3655 531.978 37.6336 532.166 37.9638 532.29C38.2977 532.414 38.6705 532.477 39.0825 532.477C39.5121 532.477 39.8886 532.413 40.2117 532.285C40.5384 532.153 40.7941 531.972 40.9788 531.741C41.1634 531.507 41.2575 531.234 41.2611 530.921C41.2575 530.637 41.1741 530.403 41.0107 530.218C40.8474 530.03 40.6183 529.874 40.3236 529.749C40.0324 529.621 39.6915 529.508 39.3008 529.408L38.0597 529.089C37.1613 528.858 36.4511 528.508 35.929 528.039C35.4106 527.567 35.1513 526.94 35.1513 526.159C35.1513 525.516 35.3254 524.953 35.6734 524.471C36.0249 523.988 36.5026 523.613 37.1062 523.347C37.7099 523.077 38.3935 522.942 39.157 522.942C39.9312 522.942 40.6094 523.077 41.1918 523.347C41.7778 523.613 42.2376 523.984 42.5714 524.46C42.9053 524.932 43.0775 525.475 43.0881 526.09H41.1865ZM48.536 534.16C47.7157 534.16 47.0073 533.989 46.4107 533.648C45.8176 533.304 45.3613 532.817 45.0417 532.189C44.7221 531.557 44.5623 530.813 44.5623 529.957C44.5623 529.115 44.7221 528.377 45.0417 527.741C45.3649 527.102 45.8159 526.605 46.3947 526.25C46.9735 525.891 47.6536 525.712 48.4348 525.712C48.9391 525.712 49.4149 525.793 49.8624 525.957C50.3134 526.116 50.7111 526.365 51.0556 526.702C51.4036 527.04 51.677 527.469 51.8759 527.991C52.0747 528.51 52.1742 529.128 52.1742 529.845V530.436H45.4678V529.137H50.3258C50.3222 528.767 50.2423 528.439 50.0861 528.151C49.9298 527.86 49.7114 527.631 49.4309 527.464C49.1539 527.297 48.8308 527.214 48.4614 527.214C48.0673 527.214 47.721 527.31 47.4227 527.501C47.1244 527.69 46.8918 527.938 46.7249 528.247C46.5616 528.553 46.4781 528.888 46.4746 529.254V530.388C46.4746 530.864 46.5616 531.273 46.7356 531.614C46.9096 531.951 47.1529 532.21 47.4654 532.391C47.7779 532.569 48.1436 532.658 48.5627 532.658C48.8432 532.658 49.0971 532.619 49.3244 532.54C49.5516 532.459 49.7487 532.34 49.9156 532.184C50.0825 532.027 50.2086 531.834 50.2938 531.603L52.0943 531.805C51.9806 532.281 51.764 532.697 51.4444 533.052C51.1284 533.403 50.7235 533.677 50.2299 533.872C49.7363 534.064 49.1717 534.16 48.536 534.16ZM57.891 525.818V527.31H53.1876V525.818H57.891ZM54.3488 523.858H56.2771V531.539C56.2771 531.798 56.3161 531.997 56.3942 532.136C56.4759 532.271 56.5825 532.363 56.7138 532.413C56.8452 532.462 56.9908 532.487 57.1506 532.487C57.2714 532.487 57.3815 532.478 57.4809 532.461C57.5839 532.443 57.662 532.427 57.7153 532.413L58.0402 533.92C57.9372 533.956 57.7898 533.995 57.5981 534.037C57.4099 534.08 57.179 534.105 56.9056 534.112C56.4227 534.126 55.9876 534.053 55.6006 533.893C55.2135 533.73 54.9063 533.478 54.679 533.137C54.4553 532.796 54.3452 532.37 54.3488 531.859V523.858ZM63.5893 525.818V527.31H58.8858V525.818H63.5893ZM60.047 523.858H61.9753V531.539C61.9753 531.798 62.0144 531.997 62.0925 532.136C62.1742 532.271 62.2807 532.363 62.4121 532.413C62.5435 532.462 62.6891 532.487 62.8489 532.487C62.9696 532.487 63.0797 532.478 63.1791 532.461C63.2821 532.443 63.3602 532.427 63.4135 532.413L63.7384 533.92C63.6355 533.956 63.4881 533.995 63.2963 534.037C63.1081 534.08 62.8773 534.105 62.6038 534.112C62.1209 534.126 61.6859 534.053 61.2988 533.893C60.9117 533.73 60.6046 533.478 60.3773 533.137C60.1536 532.796 60.0435 532.37 60.047 531.859V523.858ZM65.2019 534V525.818H67.1302V534H65.2019ZM66.1714 524.657C65.866 524.657 65.6032 524.556 65.3831 524.353C65.1629 524.147 65.0528 523.901 65.0528 523.613C65.0528 523.322 65.1629 523.075 65.3831 522.873C65.6032 522.667 65.866 522.564 66.1714 522.564C66.4804 522.564 66.7431 522.667 66.9598 522.873C67.1799 523.075 67.29 523.322 67.29 523.613C67.29 523.901 67.1799 524.147 66.9598 524.353C66.7431 524.556 66.4804 524.657 66.1714 524.657ZM71.0413 529.206V534H69.1131V525.818H70.9561V527.208H71.052C71.2402 526.75 71.5403 526.386 71.9522 526.116C72.3677 525.847 72.8808 525.712 73.4916 525.712C74.0563 525.712 74.5481 525.832 74.9671 526.074C75.3897 526.315 75.7164 526.665 75.9472 527.123C76.1816 527.581 76.297 528.137 76.2935 528.79V534H74.3652V529.089C74.3652 528.542 74.2232 528.114 73.9391 527.805C73.6585 527.496 73.2697 527.342 72.7725 527.342C72.4352 527.342 72.1351 527.416 71.8723 527.565C71.6131 527.711 71.4089 527.922 71.2597 528.199C71.1141 528.476 71.0413 528.812 71.0413 529.206ZM81.8119 537.239C81.1195 537.239 80.5247 537.145 80.0275 536.956C79.5303 536.772 79.1308 536.523 78.829 536.211C78.5271 535.898 78.3176 535.552 78.2004 535.172L79.9369 534.751C80.0151 534.911 80.1287 535.069 80.2779 535.225C80.427 535.385 80.6276 535.516 80.8798 535.619C81.1355 535.726 81.4568 535.779 81.8439 535.779C82.3908 535.779 82.8436 535.646 83.2022 535.38C83.5609 535.117 83.7402 534.684 83.7402 534.08V532.53H83.6443C83.5449 532.729 83.3993 532.933 83.2075 533.142C83.0193 533.352 82.769 533.528 82.4565 533.67C82.1475 533.812 81.7587 533.883 81.2899 533.883C80.6614 533.883 80.0914 533.735 79.5801 533.441C79.0722 533.142 78.6674 532.699 78.3656 532.109C78.0673 531.516 77.9181 530.774 77.9181 529.882C77.9181 528.984 78.0673 528.226 78.3656 527.608C78.6674 526.987 79.074 526.516 79.5854 526.196C80.0967 525.873 80.6667 525.712 81.2953 525.712C81.7747 525.712 82.1688 525.793 82.4778 525.957C82.7903 526.116 83.0389 526.31 83.2235 526.537C83.4082 526.761 83.5485 526.972 83.6443 527.171H83.7509V525.818H85.6525V534.133C85.6525 534.833 85.4856 535.412 85.1518 535.87C84.818 536.328 84.3617 536.67 83.7828 536.898C83.204 537.125 82.547 537.239 81.8119 537.239ZM81.8279 532.37C82.2363 532.37 82.5843 532.271 82.872 532.072C83.1596 531.873 83.378 531.587 83.5271 531.214C83.6763 530.841 83.7509 530.394 83.7509 529.872C83.7509 529.357 83.6763 528.906 83.5271 528.519C83.3815 528.132 83.1649 527.832 82.8773 527.619C82.5932 527.402 82.2434 527.294 81.8279 527.294C81.3982 527.294 81.0396 527.406 80.7519 527.629C80.4643 527.853 80.2477 528.16 80.1021 528.551C79.9565 528.938 79.8837 529.378 79.8837 529.872C79.8837 530.373 79.9565 530.811 80.1021 531.188C80.2512 531.56 80.4696 531.852 80.7573 532.061C81.0485 532.267 81.4053 532.37 81.8279 532.37ZM94.0953 527.981L92.3375 528.173C92.2878 527.995 92.2008 527.828 92.0765 527.672C91.9558 527.516 91.7924 527.39 91.5864 527.294C91.3805 527.198 91.1284 527.15 90.8301 527.15C90.4288 527.15 90.0914 527.237 89.818 527.411C89.5481 527.585 89.4149 527.81 89.4185 528.087C89.4149 528.325 89.5019 528.519 89.6795 528.668C89.8606 528.817 90.1589 528.94 90.5744 529.036L91.97 529.334C92.7441 529.501 93.3194 529.765 93.6958 530.127C94.0758 530.49 94.2676 530.964 94.2711 531.55C94.2676 532.065 94.1166 532.519 93.8183 532.913C93.5236 533.304 93.1134 533.609 92.5879 533.83C92.0623 534.05 91.4586 534.16 90.7768 534.16C89.7754 534.16 88.9693 533.95 88.3585 533.531C87.7477 533.109 87.3837 532.521 87.2665 531.768L89.1468 531.587C89.232 531.956 89.4132 532.235 89.6901 532.423C89.9671 532.612 90.3276 532.706 90.7715 532.706C91.2296 532.706 91.5971 532.612 91.8741 532.423C92.1546 532.235 92.2949 532.002 92.2949 531.725C92.2949 531.491 92.2043 531.298 92.0232 531.145C91.8457 530.992 91.5687 530.875 91.1923 530.793L89.7967 530.5C89.0119 530.337 88.4313 530.062 88.0548 529.675C87.6784 529.284 87.492 528.79 87.4955 528.194C87.492 527.69 87.6287 527.253 87.9057 526.884C88.1862 526.511 88.5751 526.223 89.0722 526.021C89.573 525.815 90.15 525.712 90.8034 525.712C91.7622 525.712 92.5168 525.916 93.0673 526.324C93.6212 526.733 93.9639 527.285 94.0953 527.981Z" fill="black"/>
<path d="M35.2579 581V570.091H37.2341V574.709H42.2891V570.091H44.2707V581H42.2891V576.366H37.2341V581H35.2579ZM49.9569 581.16C49.1366 581.16 48.4282 580.989 47.8316 580.648C47.2385 580.304 46.7822 579.817 46.4626 579.189C46.143 578.557 45.9832 577.813 45.9832 576.957C45.9832 576.115 46.143 575.377 46.4626 574.741C46.7858 574.102 47.2367 573.605 47.8156 573.25C48.3944 572.891 49.0745 572.712 49.8557 572.712C50.36 572.712 50.8358 572.793 51.2833 572.957C51.7343 573.116 52.132 573.365 52.4765 573.702C52.8245 574.04 53.0979 574.469 53.2968 574.991C53.4956 575.51 53.5951 576.128 53.5951 576.845V577.436H46.8887V576.137H51.7467C51.7431 575.767 51.6632 575.439 51.507 575.151C51.3507 574.86 51.1323 574.631 50.8518 574.464C50.5748 574.297 50.2517 574.214 49.8823 574.214C49.4882 574.214 49.1419 574.31 48.8436 574.501C48.5453 574.69 48.3127 574.938 48.1458 575.247C47.9825 575.553 47.899 575.888 47.8955 576.254V577.388C47.8955 577.864 47.9825 578.273 48.1565 578.614C48.3305 578.951 48.5738 579.21 48.8863 579.391C49.1988 579.569 49.5645 579.658 49.9836 579.658C50.2641 579.658 50.518 579.619 50.7453 579.54C50.9725 579.459 51.1696 579.34 51.3365 579.184C51.5034 579.027 51.6295 578.834 51.7147 578.603L53.5152 578.805C53.4015 579.281 53.1849 579.697 52.8653 580.052C52.5493 580.403 52.1444 580.677 51.6508 580.872C51.1572 581.064 50.5926 581.16 49.9569 581.16ZM57.1546 570.091V581H55.2264V570.091H57.1546ZM59.1375 584.068V572.818H61.0338V574.171H61.1457C61.2451 573.972 61.3854 573.761 61.5665 573.537C61.7476 573.31 61.9926 573.116 62.3016 572.957C62.6105 572.793 63.0047 572.712 63.4841 572.712C64.1162 572.712 64.6861 572.873 65.194 573.196C65.7053 573.516 66.1102 573.99 66.4084 574.619C66.7103 575.244 66.8612 576.011 66.8612 576.92C66.8612 577.818 66.7138 578.582 66.4191 579.21C66.1244 579.839 65.7231 580.318 65.2153 580.648C64.7075 580.979 64.1322 581.144 63.4894 581.144C63.0207 581.144 62.6318 581.066 62.3229 580.909C62.0139 580.753 61.7653 580.565 61.5771 580.345C61.3925 580.121 61.2486 579.91 61.1457 579.711H61.0658V584.068H59.1375ZM61.0285 576.909C61.0285 577.438 61.103 577.902 61.2522 578.299C61.4049 578.697 61.6233 579.008 61.9074 579.232C62.195 579.452 62.543 579.562 62.9514 579.562C63.3776 579.562 63.7344 579.448 64.0221 579.221C64.3097 578.99 64.5263 578.676 64.6719 578.278C64.8211 577.877 64.8957 577.42 64.8957 576.909C64.8957 576.401 64.8229 575.95 64.6773 575.556C64.5317 575.162 64.3151 574.853 64.0274 574.629C63.7398 574.406 63.3811 574.294 62.9514 574.294C62.5395 574.294 62.1897 574.402 61.9021 574.619C61.6144 574.835 61.396 575.139 61.2469 575.529C61.1013 575.92 61.0285 576.38 61.0285 576.909ZM75.4931 581.16C74.7474 581.16 74.1064 581.025 73.5702 580.755C73.034 580.485 72.6203 580.121 72.3291 579.663C72.0414 579.201 71.8976 578.681 71.8976 578.102C71.8976 577.665 71.9864 577.278 72.164 576.941C72.3451 576.604 72.5936 576.291 72.9097 576.004C73.2293 575.716 73.5986 575.43 74.0176 575.146L75.9512 573.83C76.2353 573.646 76.4502 573.45 76.5958 573.244C76.7449 573.038 76.8195 572.797 76.8195 572.52C76.8195 572.286 76.7201 572.064 76.5212 571.854C76.3259 571.645 76.056 571.54 75.7115 571.54C75.4807 571.54 75.2765 571.595 75.099 571.705C74.925 571.811 74.7882 571.952 74.6888 572.126C74.5929 572.3 74.545 572.484 74.545 572.68C74.545 572.918 74.6107 573.159 74.7421 573.404C74.877 573.649 75.051 573.903 75.2641 574.166C75.4807 574.429 75.7115 574.707 75.9566 575.002L81.0755 581H78.9875L74.7367 576.131C74.4207 575.762 74.1153 575.398 73.8206 575.039C73.5294 574.681 73.2897 574.308 73.1015 573.921C72.9168 573.53 72.8245 573.108 72.8245 572.653C72.8245 572.138 72.9434 571.678 73.1814 571.273C73.4193 570.865 73.7513 570.544 74.1774 570.309C74.6071 570.075 75.1096 569.958 75.6849 569.958C76.2602 569.958 76.7538 570.071 77.1657 570.299C77.5777 570.526 77.8955 570.828 78.1192 571.204C78.3429 571.581 78.4548 571.991 78.4548 572.435C78.4548 572.95 78.3269 573.411 78.0713 573.82C77.8156 574.224 77.4605 574.592 77.0059 574.922L74.8007 576.536C74.4385 576.799 74.1792 577.065 74.023 577.335C73.8667 577.602 73.7886 577.829 73.7886 578.017C73.7886 578.305 73.8614 578.566 74.007 578.8C74.1526 579.034 74.3568 579.223 74.6196 579.365C74.8859 579.503 75.1966 579.572 75.5517 579.572C75.9424 579.572 76.3277 579.485 76.7076 579.311C77.0876 579.134 77.4338 578.882 77.7463 578.555C78.0588 578.228 78.3074 577.838 78.4921 577.383C78.6767 576.925 78.7691 576.417 78.7691 575.86H80.4257C80.4257 576.549 80.3493 577.149 80.1966 577.66C80.0439 578.168 79.8468 578.598 79.6054 578.949C79.3639 579.297 79.1082 579.576 78.8383 579.786C78.7531 579.846 78.6714 579.906 78.5933 579.967C78.5152 580.027 78.4335 580.087 78.3483 580.148C77.9647 580.496 77.5155 580.751 77.0006 580.915C76.4892 581.078 75.9868 581.16 75.4931 581.16ZM91.914 573.09C91.8643 572.625 91.6548 572.262 91.2855 572.003C90.9197 571.744 90.4439 571.614 89.8579 571.614C89.446 571.614 89.0927 571.676 88.7979 571.801C88.5032 571.925 88.2777 572.094 88.1214 572.307C87.9652 572.52 87.8853 572.763 87.8817 573.037C87.8817 573.264 87.9332 573.461 88.0362 573.628C88.1427 573.795 88.2866 573.937 88.4677 574.054C88.6488 574.168 88.8494 574.263 89.0696 574.342C89.2898 574.42 89.5117 574.485 89.7354 574.539L90.7581 574.794C91.1701 574.89 91.566 575.02 91.946 575.183C92.3295 575.347 92.6722 575.553 92.9741 575.801C93.2795 576.05 93.5209 576.35 93.6985 576.701C93.876 577.053 93.9648 577.465 93.9648 577.937C93.9648 578.576 93.8015 579.139 93.4748 579.626C93.1481 580.109 92.6758 580.487 92.0579 580.76C91.4435 581.03 90.6996 581.165 89.826 581.165C88.9773 581.165 88.2404 581.034 87.6154 580.771C86.9939 580.508 86.5074 580.125 86.1559 579.62C85.8079 579.116 85.6197 578.502 85.5912 577.777H87.5355C87.5639 578.157 87.6811 578.473 87.8871 578.725C88.093 578.978 88.3611 579.166 88.6914 579.29C89.0252 579.414 89.3981 579.477 89.81 579.477C90.2397 579.477 90.6161 579.413 90.9393 579.285C91.266 579.153 91.5216 578.972 91.7063 578.741C91.891 578.507 91.9851 578.234 91.9886 577.921C91.9851 577.637 91.9016 577.403 91.7383 577.218C91.5749 577.03 91.3459 576.874 91.0511 576.749C90.7599 576.621 90.419 576.508 90.0284 576.408L88.7873 576.089C87.8888 575.858 87.1786 575.508 86.6566 575.039C86.1381 574.567 85.8789 573.94 85.8789 573.159C85.8789 572.516 86.0529 571.953 86.4009 571.471C86.7525 570.988 87.2301 570.613 87.8338 570.347C88.4375 570.077 89.1211 569.942 89.8846 569.942C90.6587 569.942 91.337 570.077 91.9194 570.347C92.5053 570.613 92.9652 570.984 93.299 571.46C93.6328 571.932 93.805 572.475 93.8157 573.09H91.914ZM100.856 577.559V572.818H102.785V581H100.915V579.546H100.83C100.645 580.004 100.341 580.379 99.9187 580.67C99.4997 580.961 98.983 581.107 98.3687 581.107C97.8325 581.107 97.3584 580.988 96.9464 580.75C96.5381 580.508 96.2185 580.158 95.9876 579.7C95.7568 579.239 95.6414 578.681 95.6414 578.028V572.818H97.5697V577.729C97.5697 578.248 97.7117 578.66 97.9958 578.965C98.2799 579.271 98.6528 579.423 99.1144 579.423C99.3985 579.423 99.6737 579.354 99.9401 579.216C100.206 579.077 100.425 578.871 100.595 578.598C100.769 578.321 100.856 577.974 100.856 577.559ZM104.767 584.068V572.818H106.664V574.171H106.776C106.875 573.972 107.015 573.761 107.196 573.537C107.377 573.31 107.622 573.116 107.931 572.957C108.24 572.793 108.635 572.712 109.114 572.712C109.746 572.712 110.316 572.873 110.824 573.196C111.335 573.516 111.74 573.99 112.038 574.619C112.34 575.244 112.491 576.011 112.491 576.92C112.491 577.818 112.344 578.582 112.049 579.21C111.754 579.839 111.353 580.318 110.845 580.648C110.337 580.979 109.762 581.144 109.119 581.144C108.651 581.144 108.262 581.066 107.953 580.909C107.644 580.753 107.395 580.565 107.207 580.345C107.022 580.121 106.879 579.91 106.776 579.711H106.696V584.068H104.767ZM106.658 576.909C106.658 577.438 106.733 577.902 106.882 578.299C107.035 578.697 107.253 579.008 107.537 579.232C107.825 579.452 108.173 579.562 108.581 579.562C109.007 579.562 109.364 579.448 109.652 579.221C109.94 578.99 110.156 578.676 110.302 578.278C110.451 577.877 110.526 577.42 110.526 576.909C110.526 576.401 110.453 575.95 110.307 575.556C110.162 575.162 109.945 574.853 109.657 574.629C109.37 574.406 109.011 574.294 108.581 574.294C108.169 574.294 107.82 574.402 107.532 574.619C107.244 574.835 107.026 575.139 106.877 575.529C106.731 575.92 106.658 576.38 106.658 576.909ZM114.142 584.068V572.818H116.039V574.171H116.151C116.25 573.972 116.39 573.761 116.571 573.537C116.752 573.31 116.997 573.116 117.306 572.957C117.615 572.793 118.01 572.712 118.489 572.712C119.121 572.712 119.691 572.873 120.199 573.196C120.71 573.516 121.115 573.99 121.413 574.619C121.715 575.244 121.866 576.011 121.866 576.92C121.866 577.818 121.719 578.582 121.424 579.21C121.129 579.839 120.728 580.318 120.22 580.648C119.712 580.979 119.137 581.144 118.494 581.144C118.026 581.144 117.637 581.066 117.328 580.909C117.019 580.753 116.77 580.565 116.582 580.345C116.397 580.121 116.254 579.91 116.151 579.711H116.071V584.068H114.142ZM116.033 576.909C116.033 577.438 116.108 577.902 116.257 578.299C116.41 578.697 116.628 579.008 116.912 579.232C117.2 579.452 117.548 579.562 117.956 579.562C118.382 579.562 118.739 579.448 119.027 579.221C119.315 578.99 119.531 578.676 119.677 578.278C119.826 577.877 119.901 577.42 119.901 576.909C119.901 576.401 119.828 575.95 119.682 575.556C119.537 575.162 119.32 574.853 119.032 574.629C118.745 574.406 118.386 574.294 117.956 574.294C117.544 574.294 117.195 574.402 116.907 574.619C116.619 574.835 116.401 575.139 116.252 575.529C116.106 575.92 116.033 576.38 116.033 576.909ZM127.086 581.16C126.287 581.16 125.595 580.984 125.009 580.632C124.423 580.281 123.968 579.789 123.645 579.157C123.326 578.525 123.166 577.786 123.166 576.941C123.166 576.096 123.326 575.355 123.645 574.72C123.968 574.084 124.423 573.591 125.009 573.239C125.595 572.887 126.287 572.712 127.086 572.712C127.885 572.712 128.578 572.887 129.164 573.239C129.75 573.591 130.202 574.084 130.522 574.72C130.845 575.355 131.007 576.096 131.007 576.941C131.007 577.786 130.845 578.525 130.522 579.157C130.202 579.789 129.75 580.281 129.164 580.632C128.578 580.984 127.885 581.16 127.086 581.16ZM127.097 579.615C127.53 579.615 127.892 579.496 128.184 579.258C128.475 579.017 128.691 578.694 128.833 578.289C128.979 577.884 129.052 577.433 129.052 576.936C129.052 576.435 128.979 575.982 128.833 575.577C128.691 575.169 128.475 574.844 128.184 574.603C127.892 574.361 127.53 574.24 127.097 574.24C126.653 574.24 126.284 574.361 125.989 574.603C125.698 574.844 125.479 575.169 125.334 575.577C125.192 575.982 125.121 576.435 125.121 576.936C125.121 577.433 125.192 577.884 125.334 578.289C125.479 578.694 125.698 579.017 125.989 579.258C126.284 579.496 126.653 579.615 127.097 579.615ZM132.643 581V572.818H134.513V574.182H134.598C134.747 573.71 135.003 573.346 135.365 573.09C135.731 572.831 136.148 572.701 136.617 572.701C136.724 572.701 136.843 572.706 136.974 572.717C137.109 572.724 137.221 572.737 137.31 572.754V574.528C137.228 574.5 137.098 574.475 136.921 574.453C136.747 574.429 136.578 574.416 136.415 574.416C136.063 574.416 135.747 574.493 135.467 574.645C135.19 574.794 134.971 575.002 134.811 575.268C134.652 575.535 134.572 575.842 134.572 576.19V581H132.643ZM143.116 572.818V574.31H138.412V572.818H143.116ZM139.573 570.858H141.502V578.539C141.502 578.798 141.541 578.997 141.619 579.136C141.701 579.271 141.807 579.363 141.938 579.413C142.07 579.462 142.215 579.487 142.375 579.487C142.496 579.487 142.606 579.478 142.706 579.461C142.808 579.443 142.887 579.427 142.94 579.413L143.265 580.92C143.162 580.956 143.014 580.995 142.823 581.037C142.634 581.08 142.404 581.105 142.13 581.112C141.647 581.126 141.212 581.053 140.825 580.893C140.438 580.73 140.131 580.478 139.904 580.137C139.68 579.796 139.57 579.37 139.573 578.859V570.858Z" fill="black"/>
<path d="M41.1865 621.09C41.1368 620.625 40.9273 620.262 40.558 620.003C40.1922 619.744 39.7163 619.614 39.1304 619.614C38.7185 619.614 38.3651 619.676 38.0704 619.801C37.7756 619.925 37.5501 620.094 37.3939 620.307C37.2376 620.52 37.1577 620.763 37.1542 621.037C37.1542 621.264 37.2057 621.461 37.3087 621.628C37.4152 621.795 37.559 621.937 37.7401 622.054C37.9212 622.168 38.1219 622.263 38.342 622.342C38.5622 622.42 38.7842 622.485 39.0079 622.539L40.0306 622.794C40.4425 622.89 40.8385 623.02 41.2185 623.183C41.602 623.347 41.9447 623.553 42.2465 623.801C42.5519 624.05 42.7934 624.35 42.9709 624.701C43.1485 625.053 43.2373 625.465 43.2373 625.937C43.2373 626.576 43.0739 627.139 42.7472 627.626C42.4205 628.109 41.9482 628.487 41.3303 628.76C40.716 629.03 39.972 629.165 39.0984 629.165C38.2497 629.165 37.5129 629.034 36.8879 628.771C36.2664 628.508 35.7799 628.125 35.4283 627.62C35.0803 627.116 34.8921 626.502 34.8637 625.777H36.808C36.8364 626.157 36.9535 626.473 37.1595 626.725C37.3655 626.978 37.6336 627.166 37.9638 627.29C38.2977 627.414 38.6705 627.477 39.0825 627.477C39.5121 627.477 39.8886 627.413 40.2117 627.285C40.5384 627.153 40.7941 626.972 40.9788 626.741C41.1634 626.507 41.2575 626.234 41.2611 625.921C41.2575 625.637 41.1741 625.403 41.0107 625.218C40.8474 625.03 40.6183 624.874 40.3236 624.749C40.0324 624.621 39.6915 624.508 39.3008 624.408L38.0597 624.089C37.1613 623.858 36.4511 623.508 35.929 623.039C35.4106 622.567 35.1513 621.94 35.1513 621.159C35.1513 620.516 35.3254 619.953 35.6734 619.471C36.0249 618.988 36.5026 618.613 37.1062 618.347C37.7099 618.077 38.3935 617.942 39.157 617.942C39.9312 617.942 40.6094 618.077 41.1918 618.347C41.7778 618.613 42.2376 618.984 42.5714 619.46C42.9053 619.932 43.0775 620.475 43.0881 621.09H41.1865ZM48.536 629.16C47.7157 629.16 47.0073 628.989 46.4107 628.648C45.8176 628.304 45.3613 627.817 45.0417 627.189C44.7221 626.557 44.5623 625.813 44.5623 624.957C44.5623 624.115 44.7221 623.377 45.0417 622.741C45.3649 622.102 45.8159 621.605 46.3947 621.25C46.9735 620.891 47.6536 620.712 48.4348 620.712C48.9391 620.712 49.4149 620.793 49.8624 620.957C50.3134 621.116 50.7111 621.365 51.0556 621.702C51.4036 622.04 51.677 622.469 51.8759 622.991C52.0747 623.51 52.1742 624.128 52.1742 624.845V625.436H45.4678V624.137H50.3258C50.3222 623.767 50.2423 623.439 50.0861 623.151C49.9298 622.86 49.7114 622.631 49.4309 622.464C49.1539 622.297 48.8308 622.214 48.4614 622.214C48.0673 622.214 47.721 622.31 47.4227 622.501C47.1244 622.69 46.8918 622.938 46.7249 623.247C46.5616 623.553 46.4781 623.888 46.4746 624.254V625.388C46.4746 625.864 46.5616 626.273 46.7356 626.614C46.9096 626.951 47.1529 627.21 47.4654 627.391C47.7779 627.569 48.1436 627.658 48.5627 627.658C48.8432 627.658 49.0971 627.619 49.3244 627.54C49.5516 627.459 49.7487 627.34 49.9156 627.184C50.0825 627.027 50.2086 626.834 50.2938 626.603L52.0943 626.805C51.9806 627.281 51.764 627.697 51.4444 628.052C51.1284 628.403 50.7235 628.677 50.2299 628.872C49.7363 629.064 49.1717 629.16 48.536 629.16ZM57.3744 629.16C56.5576 629.16 55.8562 628.98 55.2703 628.622C54.6879 628.263 54.2387 627.768 53.9227 627.136C53.6102 626.5 53.4539 625.768 53.4539 624.941C53.4539 624.11 53.6137 623.377 53.9333 622.741C54.2529 622.102 54.7039 621.605 55.2863 621.25C55.8722 620.891 56.5647 620.712 57.3637 620.712C58.0278 620.712 58.6155 620.834 59.1268 621.079C59.6418 621.321 60.0519 621.663 60.3573 622.107C60.6627 622.548 60.8367 623.062 60.8793 623.652H59.0363C58.9617 623.258 58.7842 622.929 58.5036 622.667C58.2266 622.4 57.8555 622.267 57.3903 622.267C56.9962 622.267 56.6499 622.374 56.3516 622.587C56.0533 622.796 55.8207 623.098 55.6538 623.492C55.4905 623.886 55.4088 624.359 55.4088 624.909C55.4088 625.467 55.4905 625.946 55.6538 626.347C55.8172 626.745 56.0462 627.052 56.341 627.269C56.6393 627.482 56.9891 627.588 57.3903 627.588C57.6744 627.588 57.9283 627.535 58.1521 627.429C58.3793 627.319 58.5693 627.161 58.722 626.955C58.8747 626.749 58.9795 626.498 59.0363 626.203H60.8793C60.8332 626.782 60.6627 627.295 60.368 627.743C60.0732 628.187 59.6719 628.535 59.1641 628.787C58.6563 629.036 58.0597 629.16 57.3744 629.16ZM67.6775 625.559V620.818H69.6058V629H67.7361V627.546H67.6509C67.4662 628.004 67.1626 628.379 66.74 628.67C66.321 628.961 65.8043 629.107 65.19 629.107C64.6537 629.107 64.1797 628.988 63.7677 628.75C63.3594 628.508 63.0398 628.158 62.8089 627.7C62.5781 627.239 62.4627 626.681 62.4627 626.028V620.818H64.391V625.729C64.391 626.248 64.533 626.66 64.8171 626.965C65.1012 627.271 65.4741 627.423 65.9357 627.423C66.2198 627.423 66.495 627.354 66.7613 627.216C67.0277 627.077 67.2461 626.871 67.4165 626.598C67.5905 626.321 67.6775 625.974 67.6775 625.559ZM71.5887 629V620.818H73.4583V622.182H73.5436C73.6927 621.71 73.9484 621.346 74.3106 621.09C74.6764 620.831 75.0936 620.701 75.5624 620.701C75.6689 620.701 75.7879 620.706 75.9193 620.717C76.0542 620.724 76.1661 620.737 76.2549 620.754V622.528C76.1732 622.5 76.0436 622.475 75.866 622.453C75.692 622.429 75.5233 622.416 75.36 622.416C75.0084 622.416 74.6924 622.493 74.4118 622.645C74.1348 622.794 73.9164 623.002 73.7566 623.268C73.5968 623.535 73.5169 623.842 73.5169 624.19V629H71.5887ZM77.5359 629V620.818H79.4642V629H77.5359ZM78.5054 619.657C78.2 619.657 77.9372 619.556 77.717 619.353C77.4969 619.147 77.3868 618.901 77.3868 618.613C77.3868 618.322 77.4969 618.075 77.717 617.873C77.9372 617.667 78.2 617.564 78.5054 617.564C78.8143 617.564 79.0771 617.667 79.2937 617.873C79.5139 618.075 79.624 618.322 79.624 618.613C79.624 618.901 79.5139 619.147 79.2937 619.353C79.0771 619.556 78.8143 619.657 78.5054 619.657ZM85.5326 620.818V622.31H80.8292V620.818H85.5326ZM81.9904 618.858H83.9187V626.539C83.9187 626.798 83.9577 626.997 84.0358 627.136C84.1175 627.271 84.2241 627.363 84.3554 627.413C84.4868 627.462 84.6324 627.487 84.7922 627.487C84.913 627.487 85.0231 627.478 85.1225 627.461C85.2255 627.443 85.3036 627.427 85.3569 627.413L85.6818 628.92C85.5788 628.956 85.4314 628.995 85.2397 629.037C85.0515 629.08 84.8206 629.105 84.5472 629.112C84.0643 629.126 83.6292 629.053 83.2422 628.893C82.8551 628.73 82.5479 628.478 82.3206 628.137C82.0969 627.796 81.9868 627.37 81.9904 626.859V618.858ZM88.3438 632.068C88.081 632.068 87.8378 632.047 87.6141 632.004C87.3939 631.965 87.2181 631.919 87.0867 631.866L87.5342 630.364C87.8147 630.445 88.0651 630.484 88.2852 630.481C88.5054 630.477 88.6989 630.408 88.8658 630.273C89.0363 630.142 89.1801 629.922 89.2973 629.613L89.4624 629.17L86.4955 620.818H88.5409L90.4266 626.997H90.5118L92.4028 620.818H94.4535L91.1776 629.991C91.0249 630.424 90.8225 630.795 90.5704 631.104C90.3182 631.417 90.0093 631.654 89.6435 631.818C89.2813 631.985 88.8481 632.068 88.3438 632.068Z" fill="black"/>
<path d="M67.076 701V690.091H69.0522V699.343H73.8569V701H67.076ZM79.0558 701.16C78.2567 701.16 77.5643 700.984 76.9783 700.632C76.3924 700.281 75.9379 699.789 75.6147 699.157C75.2951 698.525 75.1353 697.786 75.1353 696.941C75.1353 696.096 75.2951 695.355 75.6147 694.72C75.9379 694.084 76.3924 693.591 76.9783 693.239C77.5643 692.887 78.2567 692.712 79.0558 692.712C79.8548 692.712 80.5472 692.887 81.1332 693.239C81.7191 693.591 82.1719 694.084 82.4915 694.72C82.8146 695.355 82.9762 696.096 82.9762 696.941C82.9762 697.786 82.8146 698.525 82.4915 699.157C82.1719 699.789 81.7191 700.281 81.1332 700.632C80.5472 700.984 79.8548 701.16 79.0558 701.16ZM79.0664 699.615C79.4996 699.615 79.8619 699.496 80.1531 699.258C80.4442 699.017 80.6609 698.694 80.8029 698.289C80.9485 697.884 81.0213 697.433 81.0213 696.936C81.0213 696.435 80.9485 695.982 80.8029 695.577C80.6609 695.169 80.4442 694.844 80.1531 694.603C79.8619 694.361 79.4996 694.24 79.0664 694.24C78.6225 694.24 78.2532 694.361 77.9585 694.603C77.6673 694.844 77.4489 695.169 77.3033 695.577C77.1612 695.982 77.0902 696.435 77.0902 696.936C77.0902 697.433 77.1612 697.884 77.3033 698.289C77.4489 698.694 77.6673 699.017 77.9585 699.258C78.2532 699.496 78.6225 699.615 79.0664 699.615ZM88.1711 704.239C87.4786 704.239 86.8838 704.145 86.3866 703.956C85.8895 703.772 85.49 703.523 85.1881 703.211C84.8863 702.898 84.6768 702.552 84.5596 702.172L86.2961 701.751C86.3742 701.911 86.4878 702.069 86.637 702.225C86.7861 702.385 86.9868 702.516 87.2389 702.619C87.4946 702.726 87.816 702.779 88.203 702.779C88.7499 702.779 89.2027 702.646 89.5613 702.38C89.92 702.117 90.0993 701.684 90.0993 701.08V699.53H90.0035C89.904 699.729 89.7584 699.933 89.5667 700.142C89.3785 700.352 89.1281 700.528 88.8156 700.67C88.5067 700.812 88.1178 700.883 87.6491 700.883C87.0205 700.883 86.4506 700.735 85.9392 700.441C85.4314 700.142 85.0265 699.699 84.7247 699.109C84.4264 698.516 84.2773 697.774 84.2773 696.882C84.2773 695.984 84.4264 695.226 84.7247 694.608C85.0265 693.987 85.4331 693.516 85.9445 693.196C86.4559 692.873 87.0258 692.712 87.6544 692.712C88.1338 692.712 88.528 692.793 88.8369 692.957C89.1494 693.116 89.398 693.31 89.5827 693.537C89.7673 693.761 89.9076 693.972 90.0035 694.171H90.11V692.818H92.0116V701.133C92.0116 701.833 91.8447 702.412 91.5109 702.87C91.1771 703.328 90.7208 703.67 90.142 703.898C89.5631 704.125 88.9062 704.239 88.1711 704.239ZM88.1871 699.37C88.5954 699.37 88.9434 699.271 89.2311 699.072C89.5187 698.873 89.7371 698.587 89.8863 698.214C90.0354 697.841 90.11 697.394 90.11 696.872C90.11 696.357 90.0354 695.906 89.8863 695.519C89.7407 695.132 89.5241 694.832 89.2364 694.619C88.9523 694.402 88.6025 694.294 88.1871 694.294C87.7574 694.294 87.3987 694.406 87.1111 694.629C86.8234 694.853 86.6068 695.16 86.4612 695.551C86.3156 695.938 86.2428 696.378 86.2428 696.872C86.2428 697.373 86.3156 697.811 86.4612 698.188C86.6104 698.56 86.8287 698.852 87.1164 699.061C87.4076 699.267 87.7645 699.37 88.1871 699.37ZM107.542 695.545C107.542 696.721 107.321 697.728 106.881 698.566C106.444 699.4 105.848 700.039 105.091 700.483C104.339 700.927 103.484 701.149 102.529 701.149C101.574 701.149 100.718 700.927 99.9617 700.483C99.2089 700.036 98.6123 699.395 98.172 698.56C97.7352 697.722 97.5168 696.717 97.5168 695.545C97.5168 694.37 97.7352 693.365 98.172 692.531C98.6123 691.692 99.2089 691.051 99.9617 690.608C100.718 690.164 101.574 689.942 102.529 689.942C103.484 689.942 104.339 690.164 105.091 690.608C105.848 691.051 106.444 691.692 106.881 692.531C107.321 693.365 107.542 694.37 107.542 695.545ZM105.555 695.545C105.555 694.718 105.425 694.02 105.166 693.452C104.91 692.88 104.555 692.449 104.101 692.158C103.646 691.863 103.122 691.716 102.529 691.716C101.936 691.716 101.412 691.863 100.958 692.158C100.503 692.449 100.146 692.88 99.8872 693.452C99.6315 694.02 99.5036 694.718 99.5036 695.545C99.5036 696.373 99.6315 697.072 99.8872 697.644C100.146 698.212 100.503 698.644 100.958 698.939C101.412 699.23 101.936 699.375 102.529 699.375C103.122 699.375 103.646 699.23 104.101 698.939C104.555 698.644 104.91 698.212 105.166 697.644C105.425 697.072 105.555 696.373 105.555 695.545ZM114.54 697.559V692.818H116.468V701H114.598V699.546H114.513C114.328 700.004 114.025 700.379 113.602 700.67C113.183 700.961 112.666 701.107 112.052 701.107C111.516 701.107 111.042 700.988 110.63 700.75C110.221 700.508 109.902 700.158 109.671 699.7C109.44 699.239 109.325 698.681 109.325 698.028V692.818H111.253V697.729C111.253 698.248 111.395 698.66 111.679 698.965C111.963 699.271 112.336 699.423 112.798 699.423C113.082 699.423 113.357 699.354 113.623 699.216C113.89 699.077 114.108 698.871 114.279 698.598C114.453 698.321 114.54 697.974 114.54 697.559ZM122.536 692.818V694.31H117.833V692.818H122.536ZM118.994 690.858H120.922V698.539C120.922 698.798 120.961 698.997 121.04 699.136C121.121 699.271 121.228 699.363 121.359 699.413C121.491 699.462 121.636 699.487 121.796 699.487C121.917 699.487 122.027 699.478 122.126 699.461C122.229 699.443 122.307 699.427 122.361 699.413L122.685 700.92C122.582 700.956 122.435 700.995 122.243 701.037C122.055 701.08 121.824 701.105 121.551 701.112C121.068 701.126 120.633 701.053 120.246 700.893C119.859 700.73 119.552 700.478 119.324 700.137C119.101 699.796 118.991 699.37 118.994 698.859V690.858Z" fill="black"/>
<path fill-rule="evenodd" clip-rule="evenodd" d="M370.904 388.333L365.526 395L364.182 393.334L368.887 387.5L364.182 381.666L365.526 380L370.904 386.667C371.082 386.888 371.182 387.188 371.182 387.5C371.182 387.812 371.082 388.112 370.904 388.333Z" fill="black"/>
<path fill-rule="evenodd" clip-rule="evenodd" d="M371.904 436.333L366.526 443L365.182 441.334L369.887 435.5L365.182 429.666L366.526 428L371.904 434.667C372.082 434.888 372.182 435.188 372.182 435.5C372.182 435.812 372.082 436.112 371.904 436.333Z" fill="black"/>
<path fill-rule="evenodd" clip-rule="evenodd" d="M371.904 483.778L366.526 490L365.182 488.445L369.887 483L365.182 477.555L366.526 476L371.904 482.222C372.082 482.429 372.182 482.708 372.182 483C372.182 483.292 372.082 483.571 371.904 483.778Z" fill="black"/>
<path fill-rule="evenodd" clip-rule="evenodd" d="M371.904 531.333L366.526 538L365.182 536.334L369.887 530.5L365.182 524.666L366.526 523L371.904 529.667C372.082 529.888 372.182 530.188 372.182 530.5C372.182 530.812 372.082 531.112 371.904 531.333Z" fill="black"/>
<path fill-rule="evenodd" clip-rule="evenodd" d="M371.904 579.333L366.526 586L365.182 584.334L369.887 578.5L365.182 572.666L366.526 571L371.904 577.667C372.082 577.888 372.182 578.188 372.182 578.5C372.182 578.812 372.082 579.112 371.904 579.333Z" fill="black"/>
<path fill-rule="evenodd" clip-rule="evenodd" d="M371.904 626.778L366.526 633L365.182 631.445L369.887 626L365.182 620.555L366.526 619L371.904 625.222C372.082 625.429 372.182 625.708 372.182 626C372.182 626.292 372.082 626.571 371.904 626.778Z" fill="black"/>
<path fill-rule="evenodd" clip-rule="evenodd" d="M370.185 341.77L364.057 347.899L362.525 346.367L367.888 341.004L362.525 335.642L364.057 334.11L370.185 340.238C370.388 340.442 370.502 340.717 370.502 341.004C370.502 341.292 370.388 341.567 370.185 341.77Z" fill="black"/>
<path d="M44.25 703C44.25 702.801 44.329 702.61 44.4697 702.47C44.6103 702.329 44.8011 702.25 45 702.25H51C51.0663 702.25 51.1299 702.224 51.1768 702.177C51.2237 702.13 51.25 702.066 51.25 702V690C51.25 689.934 51.2237 689.87 51.1768 689.823C51.1299 689.776 51.0663 689.75 51 689.75H45C44.8011 689.75 44.6103 689.671 44.4697 689.53C44.329 689.39 44.25 689.199 44.25 689C44.25 688.801 44.329 688.61 44.4697 688.47C44.6103 688.329 44.8011 688.25 45 688.25H51C51.966 688.25 52.75 689.034 52.75 690V702C52.75 702.464 52.5656 702.909 52.2374 703.237C51.9092 703.566 51.4641 703.75 51 703.75H45C44.8011 703.75 44.6103 703.671 44.4697 703.53C44.329 703.39 44.25 703.199 44.25 703Z" fill="black"/>
<path d="M48.612 697.115C48.612 697.38 48.5066 697.635 48.3191 697.822C48.1316 698.01 47.8772 698.115 47.612 698.115H42.756C42.7327 698.47 42.704 698.826 42.67 699.181L42.64 699.486C42.6288 699.601 42.5901 699.712 42.5271 699.808C42.4641 699.905 42.3786 699.985 42.278 700.042C42.1774 700.099 42.0646 700.13 41.9492 700.134C41.8338 700.138 41.7191 700.114 41.615 700.064C39.7865 699.189 38.1315 697.99 36.73 696.525L36.7 696.494C36.571 696.36 36.499 696.181 36.499 695.995C36.499 695.809 36.571 695.63 36.7 695.496L36.73 695.465C38.1315 694 39.7865 692.801 41.615 691.926C41.7191 691.876 41.8338 691.852 41.9492 691.856C42.0646 691.86 42.1774 691.891 42.278 691.948C42.3786 692.005 42.4641 692.085 42.5271 692.182C42.5901 692.279 42.6288 692.389 42.64 692.504L42.67 692.809C42.704 693.164 42.7327 693.519 42.756 693.875H47.612C47.8772 693.875 48.1316 693.98 48.3191 694.168C48.5066 694.355 48.612 694.61 48.612 694.875V697.115Z" fill="black"/>
</svg>
